<svg version="1.1" id="Layer_1" xmlns="http://www.w3.org/2000/svg" xmlns:xlink="http://www.w3.org/1999/xlink" x="0px" y="0px"
	 width="100%" viewBox="0 0 820 820" enable-background="new 0 0 820 820" xml:space="preserve">
<path fill="#FF6A00" opacity="1.000000" stroke="none" 
	d="
M371.000000,821.000000 
	C247.333328,821.000000 124.166664,821.000000 1.000000,821.000000 
	C1.000000,547.666687 1.000000,274.333344 1.000000,1.000000 
	C274.333344,1.000000 547.666687,1.000000 821.000000,1.000000 
	C821.000000,274.333344 821.000000,547.666687 821.000000,821.000000 
	C671.166687,821.000000 521.333313,821.000000 371.000000,821.000000 
M326.268707,559.722534 
	C341.436523,551.464294 356.717926,551.061768 372.194183,558.914307 
	C374.555542,560.112488 377.171204,560.807495 379.664734,561.747314 
	C412.574463,574.150696 446.128845,576.513489 480.305511,567.956360 
	C506.937103,561.288330 530.466064,549.035889 548.739868,528.101013 
	C572.863037,500.464874 583.253845,467.409607 583.749756,431.454071 
	C584.489563,377.809387 583.991211,324.146820 583.864075,270.492218 
	C583.851562,265.204865 583.187195,259.827667 582.077515,254.652542 
	C579.449219,242.394379 571.651855,234.687164 559.557129,231.830338 
	C547.566895,228.998154 535.370911,229.011429 523.380432,231.843231 
	C511.617737,234.621277 503.308502,241.645370 500.646118,253.815643 
	C499.231842,260.280762 498.259766,266.971344 498.172302,273.574524 
	C497.874359,296.065643 498.183563,318.564056 498.027161,341.058014 
	C497.821075,370.703156 497.821686,400.360199 496.890106,429.985596 
	C496.385742,446.025970 492.479736,461.575409 480.838470,473.607117 
	C464.562592,490.428864 444.313599,493.193573 422.673431,487.651398 
	C402.111145,482.385284 390.133362,468.044922 385.446381,447.888916 
	C383.276428,438.557220 382.217163,428.784332 382.094482,419.193024 
	C381.689636,387.538483 382.082611,355.874451 381.837830,324.216614 
	C381.780212,316.765106 380.986053,309.212982 379.550171,301.899658 
	C376.105804,284.356140 364.362305,272.475891 350.390625,262.866058 
	C304.923065,231.592972 255.044907,221.107010 201.101730,233.644928 
	C159.164627,243.392319 125.468697,266.151337 101.049988,301.766357 
	C76.850677,337.061432 67.618309,376.433502 70.947845,418.920197 
	C74.611954,465.675964 92.893646,505.422607 128.282196,536.604858 
	C159.533371,564.141541 196.573441,577.454529 237.927200,578.873840 
	C268.644440,579.928101 297.748199,572.780151 326.268707,559.722534 
M710.944214,513.499817 
	C710.944214,433.172607 710.990173,352.845337 710.852600,272.518372 
	C710.842102,266.410736 710.119873,260.163940 708.697937,254.228729 
	C705.862305,242.393082 698.416443,234.593613 686.277710,231.931519 
	C673.567566,229.144119 660.796692,228.944107 648.150818,232.233002 
	C637.624512,234.970657 630.489441,241.742340 627.837341,252.255356 
	C626.182861,258.813995 625.184143,265.725891 625.170105,272.481934 
	C624.995605,356.475250 625.019531,440.469147 625.135620,524.462646 
	C625.143616,530.252441 625.855408,536.127625 626.993896,541.812134 
	C629.701782,555.331848 638.276611,563.354553 651.620911,566.267151 
	C662.343994,568.607544 673.130981,568.602905 683.883301,566.375366 
	C697.936890,563.463867 706.882507,555.007568 709.217590,540.860535 
	C710.644714,532.214111 710.424561,523.295837 710.944214,513.499817 
z"/>
<path fill="#FFFEFE" opacity="1.000000" stroke="none" 
	d="
M325.924316,559.885864 
	C297.748199,572.780151 268.644440,579.928101 237.927200,578.873840 
	C196.573441,577.454529 159.533371,564.141541 128.282196,536.604858 
	C92.893646,505.422607 74.611954,465.675964 70.947845,418.920197 
	C67.618309,376.433502 76.850677,337.061432 101.049988,301.766357 
	C125.468697,266.151337 159.164627,243.392319 201.101730,233.644928 
	C255.044907,221.107010 304.923065,231.592972 350.390625,262.866058 
	C364.362305,272.475891 376.105804,284.356140 379.550171,301.899658 
	C380.986053,309.212982 381.780212,316.765106 381.837830,324.216614 
	C382.082611,355.874451 381.689636,387.538483 382.094482,419.193024 
	C382.217163,428.784332 383.276428,438.557220 385.446381,447.888916 
	C390.133362,468.044922 402.111145,482.385284 422.673431,487.651398 
	C444.313599,493.193573 464.562592,490.428864 480.838470,473.607117 
	C492.479736,461.575409 496.385742,446.025970 496.890106,429.985596 
	C497.821686,400.360199 497.821075,370.703156 498.027161,341.058014 
	C498.183563,318.564056 497.874359,296.065643 498.172302,273.574524 
	C498.259766,266.971344 499.231842,260.280762 500.646118,253.815643 
	C503.308502,241.645370 511.617737,234.621277 523.380432,231.843231 
	C535.370911,229.011429 547.566895,228.998154 559.557129,231.830338 
	C571.651855,234.687164 579.449219,242.394379 582.077515,254.652542 
	C583.187195,259.827667 583.851562,265.204865 583.864075,270.492218 
	C583.991211,324.146820 584.489563,377.809387 583.749756,431.454071 
	C583.253845,467.409607 572.863037,500.464874 548.739868,528.101013 
	C530.466064,549.035889 506.937103,561.288330 480.305511,567.956360 
	C446.128845,576.513489 412.574463,574.150696 379.664734,561.747314 
	C377.171204,560.807495 374.555542,560.112488 372.194183,558.914307 
	C356.717926,551.061768 341.436523,551.464294 325.924316,559.885864 
M295.065430,379.500000 
	C294.787872,369.190765 294.796600,358.863922 294.164825,348.576447 
	C293.244598,333.592072 284.669312,324.070343 271.152405,318.805786 
	C240.472839,306.856750 207.876907,314.926025 185.728180,338.098969 
	C152.790039,372.560333 151.174744,426.763214 180.884537,464.006256 
	C204.733475,493.902344 245.631836,502.881226 279.014252,485.695312 
	C291.876862,479.073456 297.370209,468.459869 296.992584,454.342010 
	C296.334259,429.728424 295.706207,405.114044 295.065430,379.500000 
z"/>
<path fill="#FFFEFD" opacity="1.000000" stroke="none" 
	d="
M710.944214,513.999756 
	C710.424561,523.295837 710.644714,532.214111 709.217590,540.860535 
	C706.882507,555.007568 697.936890,563.463867 683.883301,566.375366 
	C673.130981,568.602905 662.343994,568.607544 651.620911,566.267151 
	C638.276611,563.354553 629.701782,555.331848 626.993896,541.812134 
	C625.855408,536.127625 625.143616,530.252441 625.135620,524.462646 
	C625.019531,440.469147 624.995605,356.475250 625.170105,272.481934 
	C625.184143,265.725891 626.182861,258.813995 627.837341,252.255356 
	C630.489441,241.742340 637.624512,234.970657 648.150818,232.233002 
	C660.796692,228.944107 673.567566,229.144119 686.277710,231.931519 
	C698.416443,234.593613 705.862305,242.393082 708.697937,254.228729 
	C710.119873,260.163940 710.842102,266.410736 710.852600,272.518372 
	C710.990173,352.845337 710.944214,433.172607 710.944214,513.999756 
z"/>
<path fill="#FF6B02" opacity="1.000000" stroke="none" 
	d="
M295.065430,380.000000 
	C295.706207,405.114044 296.334259,429.728424 296.992584,454.342010 
	C297.370209,468.459869 291.876862,479.073456 279.014252,485.695312 
	C245.631836,502.881226 204.733475,493.902344 180.884537,464.006256 
	C151.174744,426.763214 152.790039,372.560333 185.728180,338.098969 
	C207.876907,314.926025 240.472839,306.856750 271.152405,318.805786 
	C284.669312,324.070343 293.244598,333.592072 294.164825,348.576447 
	C294.796600,358.863922 294.787872,369.190765 295.065430,380.000000 
z"/>
</svg>