<!-- original: designed in paint.net, converted to svg in adobe express, optimized with svg viewer and afterwards manual tweaks -->
<svg xmlns="http://www.w3.org/2000/svg" viewBox="0 0 200 200" xml:space="preserve" width="200" height="200"><path fill="#fff" d="M35.575 62.567c3.777-6.444 8.358-12.146 13.771-17.141C60.5 35.132 73.573 28.73 88.592 26.317c13.75-2.209 27.059-.559 39.908 4.642 3.878 1.57 7.517 3.728 11.272 5.605.891.446 1.78.916 2.716 1.247 2.223.786 3.876-.021 4.327-2.312.376-1.905.342-3.886.586-5.821.28-2.22.434-4.494 1.058-6.622 1.015-3.455 4.21-5.266 7.601-4.447 2.581.624 4.056 2.584 4.748 5.008.475 1.661.755 3.433.77 5.159.076 8.581.106 17.163-.018 25.742-.029 2.037-.491 4.138-1.146 6.078-.932 2.76-3.124 4.394-5.933 5.014-1.818.402-3.699.701-5.555.719-7.955.077-15.913.099-23.868-.001-2.98-.037-6.008-.217-8.595-2.08-3.936-2.836-3.671-8.468.734-10.54 2.2-1.035 4.777-1.272 7.19-1.845 1.289-.306 2.628-.448 3.874-.871 1.222-.415 1.538-1.346.75-2.357-.692-.888-1.621-1.669-2.593-2.25-4.737-2.834-9.931-4.429-15.322-5.458-12.072-2.304-23.695-.793-34.9 4.144-6.178 2.722-11.786 6.332-16.729 10.954-10.743 10.046-17.032 22.382-19.105 36.921-.861 6.041-.407 12.03.351 18.038.216 1.71.143 3.504-.108 5.214-.414 2.82-2.669 4.931-5.473 5.465-2.664.507-4.901-.533-6.522-3.119-1.614-2.572-2.087-5.519-2.493-8.441-2.35-16.898 1-32.681 9.454-47.533m133.92 66.18c-3.317 7.811-7.689 14.821-13.29 21.103-11.008 12.346-24.567 20.334-40.72 23.681-18.48 3.83-35.989.858-52.465-8.318-1.524-.849-3.056-1.708-4.659-2.388-2.538-1.077-4.281-.177-4.774 2.537-.333 1.831-.263 3.731-.491 5.585-.268 2.18-.436 4.411-1.055 6.499-1.024 3.454-4.213 5.26-7.607 4.444-2.534-.61-3.995-2.538-4.708-4.896a18.7 18.7 0 0 1-.803-5.154c-.078-8.666-.11-17.334.018-25.998.03-2.035.516-4.139 1.194-6.069.931-2.648 3.066-4.242 5.779-4.856 1.817-.411 3.697-.727 5.553-.745 8.041-.079 16.084-.102 24.124.003 2.895.037 5.846.228 8.365 2.021 4.076 2.901 3.767 8.585-.79 10.669-2.178.996-4.71 1.224-7.086 1.776-1.251.291-2.553.415-3.76.826-1.339.456-1.643 1.422-.753 2.537.678.85 1.599 1.573 2.541 2.134 4.707 2.803 9.86 4.396 15.209 5.422 12.116 2.325 23.779.819 35.027-4.15 6.139-2.712 11.7-6.312 16.636-10.88 9.858-9.125 15.936-20.341 18.595-33.459 1.458-7.191 1.228-14.391.196-21.616-.237-1.662-.135-3.421.109-5.093.419-2.88 2.683-5.007 5.553-5.532 2.647-.484 4.891.581 6.494 3.19 1.61 2.621 2.052 5.615 2.484 8.578 1.872 12.826.088 25.216-4.562 37.249-.105.272-.209.543-.354.902"/></svg>