<svg xmlns="http://www.w3.org/2000/svg" xml:space="preserve" viewBox="0 0 1600 900"><path fill="#919191" d="M854 131.6q-3-.1-4.2 4.4L837 183.4l-10.7 40-25.3-6.8c-4.2-1.3-6-.1-7 4.1l-7 25.3-1 3.7q0 .6.2.9 1.4.3 3.4.3 1-1.1 1.7-2.8l7.2-27.4q13.1 3.3 26.2 7c1.4.3 2.4.3 3.9.3q4.5-13.2 8.3-26.4l9-33.3 1-3.9q-.4 1.8-.4 3.6 12.1 2.6 23.6 5.6l33.9 8.1-15.7 59-.4 2.9q1.2 1 3.1 1.7h.8l.4-1.6-.2 1.5 26.3 7.5-7 26.5q-12.7-3.2-24.9-6.8c-.6-.1-1.1-2.7-.8-4q2.9-10.9 5.4-22.7-1.8-1.2-3.1-1.7l-7.8 27.5c-.9 3.3 1.2 4.4 3.9 5l26 7-6.6 24.6c-1.6 5.9-1.4 6.3 4.6 7.9l24.1 6.9a7 7 0 0 0 1-3.3v-1q-12.6-3.8-26-7.4l7.6-26.1.6-5.1-.3 4.8 26 7.2-7.7 26.3q-.3 1 .2 1l4.1.5h.1l7.6-26.5c1-3.7-.4-5.2-3.7-6a578 578 0 0 1-21.1-5.6c-1.7-.5-3-1.8-5-2.6v-.4l7-24.5c.6-2.5.6-4.8-2.4-5.5q-13.4-3.6-27.3-6.6l-.5 1.5.5-1.9.6-2.5 23-85.7c.9-3.6.1-5.4-3.3-6.3L856.5 132q-1.4-.4-2.5-.4M828.6 228q-2.2-.1-3.6.4l-5.5 21.5c-.8 3.3-2.2 4.6-6 3.5q-11-3.2-22.2-5.2-.9 1.5-1.3 3 .2.7.7.8l24.8 6.3c2.5.7 5.3 1.8 6.3-1.5q3.8-14.4 6.8-28.8m25.6-91.9 58 15.6-7.2 26-.6 2.3.1-2-52.8-14c-1.4-.3-2.6-1.6-4.2-2.2zm-94.8 102.6c-1.8-.3-3.5.2-4.1 2.6q-3.9 14.4-6.9 28.7h3.5l.7.1q-.5 0-.7.3-1.3-.6-3.7-.1a928 928 0 0 0-10.3 36l-7 28.7 2.9 1.1 1-.1.5-2.1-.1 2.3 26 7.3-7.3 26.4-26.4-7c2.3-9 4.5-17.4 6.3-26.4a6 6 0 0 0-3.2-1.3v-.1a172 172 0 0 0-7.4 30.8l3.8 1.7q12.5 3.4 25.4 6.5a18 18 0 0 0 1.7-3.6v-.5l.1.2a12 12 0 0 0 3.4.7c2.9-8.6 5.1-17.1 7.7-25.5 1.2-4.1-.2-5.6-4-6.6-8.5-2.1-17-4.6-25.7-6.6l16-59.7-.1 1.7 25.9 7c3.5 1 5.2 0 6-3.6q3.3-12.9 6.9-25.6l-.6-.8a8 8 0 0 0-3.6 0q-3.8 13-7.3 25.7l-26.2-6.9q3.4-13 6.5-26.8c9.2 2.5 17.6 4.6 26.5 6.5a7 7 0 0 0 1-3.8l-25.3-6.8zm-5.3 131.8-1.4 4-6.7 25.8-25.8-6.7q-2.2-.5-4.7 0a397 397 0 0 0-8 30.5h3.5l7.2-26.3 25.9 7 1 .2h-.2q-.4-.2-.6.4l-6.1 23c-.2 1-1.4 1.8-2.2 3.1q0 2.4.3 4.5-.3-.2-.3.5c-1.8 7.6-3.9 14.6-5.4 21.6-.9 3.8-2.5 4.4-5.9 3.4a278 278 0 0 0-22.3-5.3l7.2-27 1-3q-.4 1.5-.3 2.9l25.7 7a23 23 0 0 0-.3-4.7 308 308 0 0 0-24.8-6.2v-.9q-1.5-.3-3.7 0a26 26 0 0 0-2.2 5l-7 24.7q-.3 1.7-1 3.7l-7 26.8v.4l-25.6-6.9c-1.7-.1-3 0-5 .4q-4.6 15.6-8.4 30.5h3.8q4-13 7.6-26.6 13 3.5 26.3 6.4.7-1.5 1-2.9l-.7 2.9.1 1h3.3a575 575 0 0 0 7.6-24.5l1.3-5 .6-2.1v1.8l19.5 5.1c7.2 1.9 7.1 1.8 5.1 9.2-2 6.8-3.4 13.7-5 20.6l4.2.1q3.5-13.2 6.4-26.9l26.5 7q1-1 1.7-2.5.2-1-.4-2l-23.4-5.9c-2.9-.7-2.5-2.8-1.9-5.1q3.5-12.2 6.4-24.4l-1.5.3 1.7-.6q4-15.3 7.2-29.9h-3q1.3.1 3.1-.4a555 555 0 0 0 8.7-33.5q-1.7-.4-3.1-.5m6.2 102-1.3 2.8-7 27c-8.5-2.7-16.8-5-25.9-7.4h-4.8q-4.5 15.7-7.9 31l3.6.2-.1.3-.7 3.7 2 .7 23.8 6.4q1.8 0 4.7-.6a408 408 0 0 0 7.7-29.9q-1.7 0-3.2.2l-7.7 26-26.4-6.9.2-.1 7.1-26.8 26.3 6.9.7-1.5-.4 1.6.2.6h3.2q4.5-14.6 9.1-30.3c1.1-3.7.4-5.2-3.2-3.9m-43.4 53.9a7 7 0 0 0-3.8-.2c-3.1 9.4-5.4 18.6-8.2 27.6-1.3 4.5.1 6.3 4.4 7.3l62.4 16.7q27.4 7.5 54.8 14.5c1.6.4 5-.5 5.3-1.5q4.2-15.7 8-31.7l-3.3-1q-.9 1.7-1.5 3.7l-7 26.4-25.7-7.1-5.5-1.2-56.7-15.2-1.9-.6h1.7q3.6-14 6.6-27.2-2.6 0-4.5.7l-5.8 26-.1-.1c-9-2.4-17.7-4.7-27-7a717 717 0 0 1 6.9-26.1zm-.9 4q-.1 1 .2 1.6 1.2-.5 1.6-1.2-.9-.6-1.8-.4m80.8 49.5q3 .6 5.2.6l5.8-25.6q-1.5-1-3-1.7a631 631 0 0 0-8 26.7m38.2-18.1 1.1-3.9v-.6l-26.4-6.5c2.2-9 4.4-17.4 6.2-26.4q-1.5-1.7-3-2.2a55 55 0 0 0-2 6.4L805 553l3.2 1.8q13.8 4 26.8 7m-142.6-72.1q-1.8 0-3.5.6l-7.3 25.6q-13.5-3.6-26.6-6.6-.7 2.6-.8 4.4 13.3 3.1 26 6.3c1.6.4 5-.5 5.2-1.5a407 407 0 0 0 7-28.8M655 509.3q.2-.5-.3-.4-2.2 0-4 .3l-8.3 29.7-.7 3 3.2.9-3.5-.8-.9.2-1.3 8.6-4.9 18.6-25.9-6.5q-1 0-1.2.5a12 12 0 0 0 .1 3.2q13 4 25.7 7.4v.1q1.5 0 3.8-.3a431 431 0 0 0 8.6-30.9q4.2-14.1 8.3-28.7zM641.4 542q.8-1.2.6-3.2c-8.7-2.7-17.1-4.8-25.3-7.2-3.4-1-5.5-.3-6.3 3.2q-3.7 14.3-7 28.2h3.8l.8-.2a621 621 0 0 0 6.4-27l25.7 6.4zm-36 21-2.1.3a783 783 0 0 0-9.7 33.9q-3.5 12-6.6 24.4l-.3 1q0-.4-.2-.6-1 0-1.5.4a682 682 0 0 0-23.6-6.4h-.4q2.8-12 5.9-23.7c.3-1 2.3-2.2 3.1-2q11.4 3 23.3 6.6a11 11 0 0 0 1.2-5l-24.8-6.5c-2.6-.6-5.6-1.6-6.6 2.2q-3.7 14.2-6.7 28.3h4.6q-2.2 0-4.8.3a403 403 0 0 0-8.4 31l3.5-.3h.6c2.5-8.6 4.6-17.2 7-26.8q13.3 3.7 26.2 7.6.5.5.9-.2l.2-4-.6-.6.8.5-.2 4.1q1.3.3 3.1.3 4.5-14.4 8.8-29.4l.9-3.6.5-2 7.2-26.2c.4-1.1.4-1.9.5-3.3zm-6.4 31.8q-.4 1.7-.4 3.2 12.8 3.4 25.4 6.3c1.7.5 5.3-.5 5.6-1.5a370 370 0 0 0 7-28.7q-2.2 0-3.6.3-2.7 11.3-5.6 21.6c-.5 1.5-2.7 3.9-3.6 3.8l-24.2-7zm-9.7 33-3.3.2h-.7l-6.8 26-26.2-7q-1-.2-1 .3-1.4-.5-3.5.2-8.7 30.2-16.7 59.7c-1.1 4.1.6 5.6 4.4 6.6a2919 2919 0 0 1 55 14.6c4.5 1.2 6.4.2 7.5-4.2q3.3-12.6 7-25.2l.2-.7v.7l24.3 6.7c3.5.9 6.3.3 7.3-3.7l7.2-27.8-4.7 1-6.3 23.1c-.9 3.3-3 2.7-5.5 2a318 318 0 0 0-21.3-5l-.7 1.3.3-1.3 7-26 .2-.7q0 .3.3.4.8 0 .8-.3-.6-.6-1-.4v-.2q.4 0 1 .6c8.1 2.2 16.1 4.3 24.9 6.4 2.2-.2 3.6-.6 5.2-1.2q2.2-6.8 3.7-13.1a204 204 0 0 0 3.2-16.2l-2.9.4-6.2 20.2-1.5 5.7-25.8-6.9q-.6-.2-1 .4l-.2.8.1-.8q-1-.6-2.3-1l2.5.6q.4 0 .4-.5l6.8-26.2a807 807 0 0 0 26.9 6.5q.6-2.3.6-4-12.9-3.6-25.4-6.6c-1.8-.5-5.5.5-5.7 1.5q-4 14-7 28.5h.2q-4.6 14.4-9 29.6l-1.1 3.9q-3.5 12.6-6.5 25l-1 2.7q-12.7-3.3-25.7-7l-4-1a7 7 0 0 0 3.7.3q2.7-10.8 5-21c.9-4.4 2.7-5.3 7-4q10.4 3.1 21.4 5 .8-2 .5-3.6l-21-5.3c-4.1-.9-5.2-2.7-4-7a435 435 0 0 0 5-22q-1.6-.3-3.6-.2a577 577 0 0 0-6 23c-.6 2.6-1.8 3.4-4.6 2.6q-11.3-3.2-23-5.9v-.1l7-27 .5-1.8.1 1.7 26 7.2q2 .3 3.7.2h.1a804 804 0 0 0 8.2-30.7m58.6 16 .2 1q1.2 0 3.2-.5a685 685 0 0 0 9.3-29.7L840.7 663l-7.2 31 3 .8q.9-1.4 1.4-3l-1 3 .3.3 26.5 6.9a422 422 0 0 0-6.4 26.4 8 8 0 0 0 3.5 1.2l7-25.1c.9-3.4.9-6-3.6-7-8.7-2-17.3-4.5-26-6.5l7.1-26.5c.9-3.5.1-5-3.6-6l-179.5-48c-3.8-1.1-5.4-.3-6.4 3.6l-6.9 25.4zm164.8-357.2q-3 0-4.1 4.4-7.2 27.6-14.8 55.6c-1.6 3.4-.7 5 2.5 5.8l57.6 15.5c2.6.7 4.5.4 5.4-3.1l15.3-57.1c1-3.2 0-4.8-3-5.7l-56.7-15zm1.4 4.7q24.6 6.9 48.8 13.2l7.4 2-15.3 57-25.6-6.7q-2.4-1-4-1.1a695 695 0 0 0-27.5-7.3l7-25.7 1-4.2 7-25.7.6-.8q.6 0 .7-.4h-.4zm0 .3h.2zm-8 26.6a14 14 0 0 0-.6 3.8c7.4 1.9 14.4 4.1 21.4 5.7 3.4.8 4.3 1.8 3.3 5.4a289 289 0 0 0-5 22.4q2 .7 3.7.4l6.6-24.8c.7-2.7 1.2-5.2-2.5-6.2q-13.4-3.6-26.9-6.7m128.5 1.4h-1q-.8 2-1 3.4l-7 25.8-.6 2.2v-1.9q-13.3-3.1-25.8-6.6-4.7-1.4-5.7 2.8-3.9 14.1-6.9 28.1 2.3 0 4.3-.4l5.6-23c.7-2.7 2-3.2 4.7-2.5a337 337 0 0 0 23.3 5.2c-2.5 9.1-4.7 17.9-7.2 27.4-.5 1.9-.7 3.2-1 4.9l.8-4.5q-12.8-3.6-26-6.9-2.1-.3-4.5-.2-4.6 15.3-8.8 31l2.4-.2-2.4.6q-4.4 16-8.1 32.7c4.5 3.2 2.9-1.7 4.4-3l6.9-25.8 1-5c-.4 2-.7 3.3-.6 5q13 3.8 25.5 6.8c1.7.4 5.4-.7 5.7-1.7q4-14.3 7.4-28.8h-2.5q1.4 0 2.6-.4 3.9-12.9 7.3-25.4l10-39.2q-1.3-.4-2.8-.4m-211.8 46.6q-4.1 13.6-7.3 27.1l4.3.1 7-25.6a8 8 0 0 0-4-1.6m166.6 11.6q12.1 3 23.8 6.4c.9.3 1.9 2.5 1.8 3.6-.3 2.7-1.3 5.2-2 7.7l-4.2 15.9-26.4-7zm-109.3 32.6c-1.4 0-3.5 1-3.7 1.8q-4 14.3-7 28.8h3.6q2.8-11.8 6.3-23.4c.3-1.1 3.1-2.4 4.4-2l49.9 13.3c3.4.9 3.6 2.4 2.8 5.4a320 320 0 0 0-5.2 22.1q1.3 1.2 2.7 1.5l7.6-27c.6-2.4.5-4.1-2.5-4.9a3777 3777 0 0 0-59-15.6m94 24.6c-1.5.8.1 5.7-4.5 3a814 814 0 0 0-8.5 30.5l1.9 1-2.1-.5a754 754 0 0 0-7.7 26q-1.5 5.3 4.1 6.5a77 77 0 0 1 10.1 2.5l15.2 5.3a589 589 0 0 0-7 29.2l2.6 1.6.6-.1.8-2.7-.6 2.6q21 5.9 42.4 11.1a7 7 0 0 0 1.4-3.5L884.5 537c-1.4-.4-2.7-1.4-4.3-2l.1-.3a1102 1102 0 0 0 15.3-59.8l-1.1-.6 1.4.5q4.2-13 7.6-26c1.1-3.8.4-6-4.1-7-8.5-1.9-16.9-4.5-25.3-6.8m1.4 5.3h.4l23.5 6.2-3.3 12.3-3.8 14.2-26.5-7q3.2-12.4 6.5-23.8c.3-.8 2-1.8 3.2-2m-104.3.8-2 .2a612 612 0 0 0-8.8 29.2v1.7c3.4-1 4.2.5 3.4 3.9q28 8.1 56.4 15.8c1.7-1.1.7-5.5 5.3-3.2 3.2-10.3 5.6-20.4 8.2-30.6l-2.5-1.3-58-15.5zm2.9 5.6q2.3 0 7.7 1.6L829 461l-5.9 21.6v.1c-.5 3.5-1.5 5.2-4.7 4.2l-53.6-14.5 4.3-16.7c1.7-6.4 2.3-8.8 5-9m-103.7.3q-3.4-.1-4.5 4.4l-6.4 26.7 4.5-.3c2-7.8 3.7-15.7 6-23.5.3-1 3.4-2 5-1.6 7.1 1.5 14.1 3.5 21.6 5q1.3-2 1-3.7l-24.7-6.6q-1.5-.4-2.5-.4M865 470.6l25.4 6.5 1.5-2.3-1.1 2.2-6.9 26.6-1 3.8.4-3.5c-7.4-1.9-14.4-4.1-21.5-5.7-3.9-.8-4.4-2.7-3.5-6l4.5-16.3c.5-1.8 1.6-3.4 2.2-5.3m-42 17.6c-1.9 0-1.5 2.9-2.5 3.8l-7.5 29.6q1.3 1.4 2.8 2.4.5.3.9-.4.9-2 1.3-4h.1q3.7-15.6 7-30.6-1.4-.9-2.1-.8m-5 31.8-1.1 3.5q12.6 4 26.3 7.6l-7 25.8q-.3.6.2 1l3.6 1.1v-.1a567 567 0 0 0 7.5-26.6c.7-2.3.9-4.6-2.5-5.3zm129.3 1.2c-1.8 0-2.2 1.6-3.5 5.7a699 699 0 0 0-6.8 24.5q0 1 .3 1l2.2-.1q-1 0-2.1.4 1 2.5 2.5 4.3c8.6 2.2 17.3 4.1 25.9 6.6 4.2 1.2 6 0 7-4l6.7-25.6 26.3 7 .4.1-6.3 23.9-9 34-24.4-6.5c-6-1.6-6.6-1.2-8.3 4.8l-6.4 24a11 11 0 0 0 3.8 1.5q4-12.7 7.7-26.5l26.7 7-7.3 26.7c-8.8-2.3-17.1-4.5-25.8-6.6q-1.3 1-2 2.5l-.2.7q0-.2-.3-.2l-4.5-.2q-3 12-6.2 23.8c-.2.8-2.6 1.7-3.7 1.4l-22.6-5.3a6 6 0 0 0-1 4l24.7 6.5c3.7 1 5.9 0 6.9-4l7-25.4-.3-.4.8.4 23 6.2c7 1.8 7.4 1.6 9.3-5.2l6.3-23.7 25.5 6.8c2.6.7 5.3 1.6 6.3-2.3l8.9-34q-2.6-5 2.4-9.4 1.5-4.1 2.3-7.6-2-1-1.7-2-.1.9 1.8 1.7h.1q.6-2 .6-3.7-1.7.9-2.4 1.8.7-1 2.5-2.1c1.5-3.8 3-7.4-2.5-8.3-2.7 3.4-4.2-.3-6.6-1.5 2.2.8 3.7 5 6.3 1.3a35 35 0 0 0-7-1.6l-3.7-1.2v-.1q-.8 1.3-1.7 1.4.8-.3 1.4-1.5-5.6-1.5-10.6-2.5l1.1 1-1.5-1.2q-2.8-1-4.9-1.1.5 2.9-.5 3.4 1-.5.2-3.5l-33.4-8.9-2 3.4-6.7 26.6-26.2-7-2-.1 1.7-.1a564 564 0 0 0 5.9-22.6c.7-2.8 1.4-3.6 4.4-2.8q10.7 3.2 22.5 5.9a8 8 0 0 0 2.3-3.5h-.1q-12.5-3.7-24.5-7-3.5-1.1-5-1M875.6 539a487 487 0 0 0-8.3 28.1c-.2 1 1.4 3.5 2.6 3.7q29.3 8.2 58.7 16c2.8.7 4.1-.7 4.8-3.4l6.7-26c-1-1.7-2-2.9-3-4.5q.1-.7-.4-1.5-2.7-.8-4.7-1.2-1.3 1.5-2.2 1.2.8.1 1.9-1.4-3.1-.9-5.6-1.3c1.1.2 2 1.5 2.8 2.2-1-.7-1.9-2-3.2-2.3q-1.7-.7-2.7-.8l-1.2 3.4a182 182 0 0 0 14.3 4.4l-7.1 26.6-56.9-15.3 6.1-26.3a6 6 0 0 0-2.6-1.6m137 3.9 1.8.3 23 6.3-4.5 17.8-10.9 40.2-26.5-7 3.7-14.5 10.7-40q.6-3 2.7-3m-83.3 8.3.4.1zm107.8 14.8q-4.5 3.8-2 8.7a53 53 0 0 0 2-8.7M893 606.2c-1.2 0-3.5 1.5-3.8 2.4a2992 2992 0 0 0-15.8 59c-.3 1.3 1.3 4 2.4 4.3q13.6 3.8 27.6 6.8-4 15.3-7.8 30.9l1.3.8-1.6-.2-7.5 30.8q.6.4 2.3 1 14.3 3.8 27.8 6.8.4-2 0-3.6a386 386 0 0 0-21.3-6c-3.9-.8-4.2-2.6-3.3-5.8l5.7-21.7q.1-.6-.4-.8 1-1.6 1.9-4.1 1-3 1.5-5.4l14-51.4 1-4q3.2-12.4 6.8-24.7l1-1-.5.7a3 3 0 0 0 1.5-1.3l23.8 6.3c1.8.2 3.1.3 5 0l2-2.4-4.8-1.8q-12-3.4-24-6.4-2.9-.6-6.2-.8l-1.3 1.4.7-1.8a462 462 0 0 0-28-8m6 105.5q13 3.3 27 6.4a579 579 0 0 0-6.7 26.7 7 7 0 0 0 3.3 1.8c2.7-8.8 4.9-17.5 7.5-26 1.1-4 .1-5.8-3.9-6.8l-25.7-6.7q-1 2.1-1.5 3.8zm-3.7-100.5q1 0 2.3.4a304 304 0 0 0 22.3 5.2 3731 3731 0 0 1-15.5 57.9l-.6 2.5V675l-22-5.8c-3.2-.7-4-1.8-3.1-5.1q6.8-24.4 13-49c.7-2.9 1.6-4 3.6-4m-352.4 69.6-.2 2.2 22.2 4.9c3.3.7 4.3 1.9 3.3 5.5q-3 11.2-5 23-14-3.9-27.9-7.3l7-25.7zM833.2 694q-4.2 15-8 29.6l3.8 2.5q12.7 3.6 26 6.6 1-2 1-3.6l-25.9-7.8 7-25.8q0-.6-.5-.7zm-8.2 30-7.5 27.6q-1.2 4.2 2.8 5.2l4.8 1.1q10.8 3.4 21.8 6.2l1.1-5.2-26.2-6.3c2.4-8.9 4.8-17.2 7-26.1a10 10 0 0 0-3.8-2.5m32.2 4.8-1 .2-.7 3.7-7.2 25.9q-.7 2.7-1.3 5.9l-6.7 24.7c-1 3.6-.8 6 4 7.2a1983 1983 0 0 1 56.1 15c4 1.1 5.5-.5 6.4-3.9l4.6-17.8 11-42.8-3.1-1.7-.8.1q-.4 1.5-.6 3.5l-15.7 58.3q-12.9-3.3-25.9-7.1l-4-1-27.9-7.2 16-61.5a8 8 0 0 0-3.2-1.5m15.1 70.2a8 8 0 0 0 3.7.4l7.1-28.3q3.6-14.4 6.6-29l-2.2-1q-1.7 3-2.4 5.7l-8 30.2a382 382 0 0 0-4.8 22"/></svg>