<svg xmlns="http://www.w3.org/2000/svg" viewBox="0 0 1600 900" xml:space="preserve"><path fill="#EEE" d="M786.926 245.92c2.36-8.402 4.897-16.761 7.005-25.227 1.046-4.2 2.873-5.349 7.08-4.097 8.217 2.444 16.563 4.45 25.325 6.76 3.623-13.515 7.146-26.714 10.702-39.904 4.262-15.811 8.71-31.575 12.724-47.449 1.07-4.227 3.024-4.938 6.74-3.937 18.853 5.082 37.723 10.1 56.593 15.118 3.445.917 4.237 2.735 3.27 6.287-7.782 28.562-15.374 57.175-23.012 85.775-.168.63-.185 1.298-.602 2.467-.468 1.523-.606 2.527-.894 3.615-.15.085-.489.15-.837-.006-1.272-.544-2.195-.933-3.131-1.737.124-1.224.199-2.05.408-2.84 5.169-19.58 10.352-39.155 15.704-59.04.408-1.445.646-2.58 1.09-4.04 2.5-8.857 4.793-17.388 7.124-26.052l-57.965-15.504c-2.232 8.765-4.35 17.083-6.715 25.694-.645 2.265-1.044 4.235-1.652 6.534-3.127 11.306-5.937 22.314-8.997 33.252-2.474 8.842-5.25 17.6-8.29 26.436-1.463.003-2.527-.035-3.875-.331-8.86-2.513-17.437-4.768-26.188-7.068-2.46 9.396-4.8 18.33-7.27 27.519-.53 1.106-.928 1.957-1.692 2.784-1.345-.04-2.324-.057-3.362-.283-.06-.21-.262-.594-.184-.946.353-1.495.627-2.637.9-3.78"/><path fill="#8A8A8A" d="M1027.034 542.4c1.098.26 2.196.52 3.713 1.218 2.743.675 4.21 5.444 7.28 1.736 5.496.951 3.974 4.507 2.479 8.31-2.272 1.558-3.99 2.706-.866 4.367-.61 2.401-1.22 4.803-2.327 7.592-3.283 2.916-4.062 5.872-2.407 9.348-2.961 11.375-5.927 22.748-8.882 34.125-1.007 3.88-3.764 2.983-6.366 2.297-8.318-2.192-16.623-4.436-25.44-6.796-2.173 8.073-4.294 15.868-6.364 23.677-1.81 6.831-2.271 7.12-9.259 5.272-7.529-1.992-15.055-3.993-23.064-6.245-.482-.255-.722-.543-.722-.543s.146-.345.199-.765c.568-1.088 1.083-1.756 1.983-2.465 8.698 2.122 17.012 4.282 25.797 6.566l7.305-26.644-26.741-6.981c-2.54 9.233-4.912 17.855-7.658 26.446-1.551-.404-2.728-.778-3.83-1.528a7219 7219 0 0 1 6.445-23.938c1.641-6.063 2.28-6.433 8.282-4.841 7.983 2.117 15.967 4.232 24.434 6.476 3.081-11.518 6.147-22.69 9.042-33.905 2.065-7.998 3.902-16.055 6.218-24.147 3.055 1.259 5.413 2.053 4.485-2.558 1.489.228 2.977.455 4.925 1.122 1.703 1.19 3.21 2.81 4.135 2.526 2.552-.784 4.76 4.012 7.204.279m5.831 25.01 4.554-17.831c-8.113-2.215-15.617-4.237-23.103-6.324-2.67-.744-3.736.12-4.447 2.888-3.422 13.324-7.142 26.572-10.702 39.861-1.265 4.72-2.378 9.48-3.622 14.471 9.131 2.418 17.556 4.65 26.45 7.004z"/><path fill="#F2F2F2" d="m833.468 693.97 7.267-31.033-180.18-48.294c-2.93 9.937-5.802 19.676-9.232 29.641-1.425.386-2.291.546-3.206.482-.049-.224-.246-.637-.209-1.01.337-1.558.637-2.742 1.03-4.302 2.368-8.681 4.827-16.941 6.832-25.31.94-3.92 2.668-4.695 6.387-3.693 59.815 16.115 119.644 32.176 179.512 48.093 3.683.98 4.545 2.451 3.585 5.907-2.43 8.748-4.676 17.546-7.09 26.668-.497 1.46-.902 2.576-1.668 3.695-1.25-.28-2.14-.562-3.028-.845"/><path fill="#EEE" d="M922.384 746.998c-3.64 14.275-7.265 28.555-10.925 42.825-1.523 5.938-3.141 11.852-4.676 17.788-.877 3.393-2.35 4.976-6.366 3.857-18.658-5.195-37.346-10.3-56.137-14.98-4.747-1.183-4.952-3.62-4-7.192 2.132-7.995 4.377-15.96 6.699-24.662.45-2.358.779-3.99 1.37-5.894 2.45-8.76 4.637-17.249 7.108-25.936.373-1.344.463-2.491.773-3.696.22-.06.635-.243 1.025-.212 1.35.382 2.308.733 3.187 1.507-5.363 20.682-10.646 40.942-16.016 61.54 9.306 2.34 18.435 4.637 27.841 7.157 1.431.426 2.585.628 4.03 1.08 8.738 2.498 17.184 4.748 25.902 7.07 5.274-19.674 10.415-38.851 15.66-58.392.207-1.35.31-2.338.605-3.425.193-.099.536-.366.8-.175 1.215.708 2.168 1.224 3.12 1.74m-317.524-48.02c-2.344 8.41-4.836 16.782-6.97 25.245-1.101 4.366-3.08 5.384-7.475 4.165-18.298-5.076-36.67-9.895-55.064-14.613-3.778-.969-5.449-2.505-4.34-6.542 5.421-19.745 10.752-39.515 16.64-59.702 1.565-.499 2.607-.571 3.646-.234-.111 1.49-.22 2.572-.663 3.862-2.507 9.093-4.68 17.977-7.09 27.102-.578 1.748-.921 3.255-1.39 5.14-2.363 8.622-4.601 16.869-6.987 25.66 9.368 2.371 18.605 4.71 28.07 7.314 1.38.455 2.528.645 3.962 1.077 8.704 2.443 17.122 4.644 25.715 6.89.421-1.165.757-1.899.954-2.668 2.109-8.226 4.195-16.458 6.536-24.928.46-1.369.67-2.497 1.107-3.923 3.01-10.118 5.794-19.938 8.936-29.666 1.298.348 2.24.603 3.087 1.262-.213 1.487-.332 2.572-.543 3.881-.092.226.013.7-.25.977-2.421 8.758-4.578 17.24-6.988 25.977-.467 1.41-.68 2.567-.893 3.724"/><path fill="#8A8A8A" d="M887.902 244c.923.389 1.846.778 3.106 1.713-1.597 7.905-3.615 15.245-5.38 22.645-.31 1.296.125 3.928.757 4.116 8.155 2.418 16.409 4.505 24.889 6.741l6.991-26.484-26.258-7.488c.138-1.003.276-2.007.775-3.14 9.353 2.09 18.36 4.25 27.328 6.563 2.96.763 3.071 2.966 2.344 5.555-2.243 7.987-4.377 16.004-6.981 24.467-.45 2.35-.472 4.244-.8 6.364-2.681 8.757-5.057 17.287-7.536 26.186 9.05 2.476 17.447 4.774 25.872 7.34.053.447.079.625.134 1.117-.17 1.317-.368 2.32-.949 3.167a2898 2898 0 0 0-24.342-6.727c-5.87-1.592-6.133-1.999-4.56-7.906 2.16-8.115 4.337-16.225 6.586-24.634-9.048-2.417-17.506-4.717-25.99-6.92-2.71-.705-4.77-1.784-3.848-5.069 2.585-9.212 5.237-18.405 7.862-27.606m44.073 306.185c1.414.292 2.828.584 4.73 1.227.417.597.348.843.361 1.45 1.033 1.615 1.983 2.868 2.97 4.528-2.213 8.906-4.56 17.381-6.657 25.918-.687 2.8-1.974 4.209-4.828 3.448-19.56-5.215-39.122-10.43-58.622-15.864-1.187-.331-2.868-2.8-2.601-3.83 2.437-9.412 5.254-18.727 8.287-28.085 1.079.405 1.832.824 2.59 1.658-2 8.904-4.004 17.394-6.107 26.303l56.86 15.254 7.152-26.583c-5.151-1.455-9.753-2.756-14.273-4.443.459-1.368.835-2.35 1.21-3.33.739.113 1.477.227 2.662.774 2.477.354 3.591 4.944 6.266 1.575"/><path fill="#EEE" d="M951.79 621.764c1.176.373 2.353.747 4.046 1.3.518.179.77.504.77.504a33 33 0 0 1-2.014 2.416c-1.849.332-3.229.255-4.976.05-8.109-2.127-15.849-4.125-23.793-6.382-.757.275-1.311.809-2.118 1.627-2.355 8.333-4.456 16.383-6.696 24.723a81 81 0 0 0-.938 4.006c-4.684 17.146-9.372 34.292-14.045 51.44-.432 1.585-.774 3.194-1.497 5.374-.739 1.769-1.137 2.956-1.911 4.177-1.296-.304-2.216-.642-3.057-1.403 2.593-10.487 5.108-20.55 7.879-30.856.44-1.393.624-2.545 1.05-3.983 5.261-19.437 10.282-38.589 15.435-57.994.506-.908.878-1.562 1.642-2.21 2.328.278 4.312.37 6.196.854 8.025 2.056 16.02 4.228 24.027 6.357"/><path fill="#7D7D7D" d="M919.953 384.959c-2.378 9.635-4.59 19.318-7.361 28.838-.315 1.083-3.952 2.105-5.722 1.706-8.403-1.897-16.693-4.296-25.435-6.853-.132-1.68.148-3.022.56-4.998-1.814.507-2.98.834-4.182.758 2.79-10.566 5.616-20.73 8.803-31.042 1.64-.092 2.92-.035 4.504.243 8.854 2.305 17.402 4.389 25.96 6.844-.24 1.611-.49 2.852-.824 4.504zm-6.932 10.58c.691-2.562 1.662-5.094 1.948-7.7.128-1.17-.86-3.338-1.772-3.609-7.752-2.305-15.604-4.278-23.778-6.443l-7.055 26.597 26.42 7.028c1.504-5.491 2.814-10.273 4.237-15.872m-38.914 39.375c8.43 2.303 16.8 4.875 25.317 6.799 4.494 1.014 5.194 3.195 4.104 7.076-2.406 8.568-4.696 17.17-7.636 25.89-1.496-.358-2.389-.848-3.184-1.284-.728 1.457-1.265 2.532-2.195 3.625a942 942 0 0 1-25.388-6.517c-1.5-.655-2.73-1.11-4.013-1.977 2.677-10.474 5.405-20.536 8.522-30.537 4.608 2.737 3.012-2.16 4.473-3.075m22.022 23.738 3.262-12.243c-8.151-2.192-15.792-4.356-23.511-6.193-1.035-.246-3.302.913-3.578 1.843-2.295 7.732-4.256 15.563-6.453 23.874l26.459 7.014c1.323-4.895 2.485-9.194 3.82-14.295"/><path fill="#F2F2F2" d="M940 556.984c-.951-1.254-1.901-2.507-2.538-4.263 1.7-.52 3.088-.539 4.744-.294 8.771 2.487 17.273 4.712 26.15 7.035 2.312-9.292 4.447-17.874 6.773-26.69a115 115 0 0 0 2.013-3.322c11.005 2.864 22.01 5.727 33.322 8.808 1.234 4.827-1.124 4.033-4.567 2.72-9.176-2.267-17.586-4.544-26.297-6.902-2.298 8.685-4.637 17.06-6.694 25.502-1.001 4.107-2.838 5.24-7.058 4.011-8.533-2.486-17.223-4.435-25.849-6.605"/><path fill="#EEE" d="M920.112 384.636c-1.287.323-2.414.323-3.856.323.333-1.652.583-2.893 1.034-4.826 2.468-9.518 4.735-18.344 7.227-27.42.452-1.347.68-2.443 1.095-3.864 2.445-8.826 4.704-17.327 6.963-25.829.2-1.004.399-2.008.936-3.433 1.518-.144 2.698.132 3.878.408-3.304 13.074-6.51 26.174-9.946 39.213-2.217 8.414-4.77 16.74-7.33 25.428"/><path fill="#F2F2F2" d="M730.855 335.004c2.37-9.564 4.65-19.152 7.136-28.685 3.11-11.927 6.388-23.809 10.22-36.01 1.642-.286 2.66-.27 3.727.104-.219 1.5-.488 2.64-.854 4.157-5.146 19.4-10.195 38.425-15.522 57.66-.374 1.374-.47 2.537-.779 3.759-.212.058-.63.2-.975.112a84 84 0 0 1-2.953-1.097"/><path fill="#EEE" d="M697.988 453.999c2.345-8.244 4.677-16.49 7.048-24.727.453-1.576 1.06-3.108 2.152-4.93 1.582-.252 2.608-.236 3.706-.017.07.201.213.604 0 .89-.455 1.434-.697 2.583-1.264 3.95-2.571 9.06-4.818 17.9-7.248 27.026-.435 1.383-.687 2.479-1.085 3.92-.539 1.945-.873 3.561-1.335 5.14-2.398 8.195-4.829 16.38-7.595 24.476-1.292.024-2.237.141-3.236.03-.054-.228-.24-.66-.164-1.018.354-1.523.634-2.687 1.016-4.224 2.371-9.083 4.64-17.794 7.096-26.808.428-1.438.668-2.573.909-3.708m192.917 23.004 1.803-3.607c.795.436 1.688.926 2.891 1.507-2.522 11.312-5.325 22.54-8.198 33.751-2.176 8.495-4.441 16.968-7.059 26.069-.711 2.167-1.032 3.716-1.547 5.33-.196.065-.595.167-.595.167-.753-.419-1.506-.838-2.566-1.64 2.055-9.886 4.417-19.392 6.982-29.215.536-2.006.87-3.693 1.377-5.73 2.419-9.11 4.666-17.871 6.912-26.632M594.894 591.988c2.632-9.417 5.265-18.835 8.381-28.69 1.636-.405 2.788-.372 3.889.087-.076 1.278-.101 2.13-.434 3.17-2.524 8.785-4.742 17.38-7.198 26.254-.59 1.924-.943 3.568-1.421 5.59-2.915 10.045-5.704 19.715-8.834 29.382-1.24.043-2.141.089-3.096-.234-.046-1.586-.038-2.804.238-4.19.318-.57.367-.972.54-1.744 2.2-8.285 4.277-16.201 6.609-24.384.612-1.925.969-3.583 1.326-5.24"/><path fill="#7D7D7D" d="M937.648 319.772c-1.44-.053-2.619-.33-4.167-.498-.393-.07-.419-.25-.168-.932 2.69-8.993 5.103-17.48 7.635-26.386l-25.969-7.131c.022-1.893.043-3.786.365-5.766 1.891.858 3.373 2.19 5.094 2.682 6.978 1.995 14.021 3.764 21.057 5.55 3.269.83 4.752 2.34 3.656 6.033-2.578 8.694-4.849 17.478-7.503 26.448m-38.654 391.193c.398-1.187.796-2.374 1.458-3.75 8.74 2.131 17.178 4.607 25.709 6.705 4.012.986 5.088 2.788 3.9 6.755-2.565 8.57-4.796 17.24-7.42 26.096-1.21-.29-2.162-.805-3.368-1.908 1.997-9.022 4.246-17.458 6.702-26.667-9.358-2.14-18.16-4.153-26.981-6.432a10 10 0 0 1 0-.799m-147.107-440.91a142 142 0 0 0-3.437-.023c2.006-9.557 4.31-19.163 6.84-28.708.86-3.245 3.525-2.932 6.09-2.235 8.27 2.248 16.539 4.498 25.177 6.79.095 1.184-.18 2.326-.928 3.82-8.91-1.855-17.347-4.064-26.48-6.454-2.161 9.229-4.219 18.015-6.523 26.81-.246.007-.739 0-.739 0M586.15 623.526c-.007 1.217-.015 2.435-.193 4.054-.17.4-.622.44-.838.114-8.723-2.692-17.23-5.057-26.209-7.554-2.39 9.52-4.554 18.142-6.941 26.765-.223.001-.67-.018-.67-.018-1.041.073-2.083.145-3.51.296 2.35-10.142 5.088-20.363 8.434-30.926 2.009-.363 3.408-.385 5.17-.274 8.047 2.13 15.73 4.128 23.611 6.387.514.56.83.858 1.147 1.156m21.064-60.567c-1.152-.033-2.304-.066-3.77.014 2.094-9.311 4.508-18.735 6.91-28.161.893-3.5 2.922-4.202 6.334-3.215 8.244 2.385 16.579 4.457 25.285 7.175.168 1.419-.07 2.318-.612 3.276-.503.1-.704.142-1.286.182-8.625-2.087-16.87-4.171-25.697-6.403-2.127 9.41-4.118 18.218-6.372 27.06-.44.047-.616.06-.792.072M856.01 729.166c-.09 1.147-.18 2.294-.953 3.603-9.068-2.048-17.454-4.257-26.108-6.606a242 242 0 0 1-3.764-2.426c2.569-9.814 5.138-19.628 7.995-29.605 1.177.12 2.066.402 3.398.788.444.103.605.318.509.684-2.399 8.803-4.701 17.24-7.034 25.785zM689.88 484.887c-.28 1.165-.559 2.33-1.306 3.838-9-1.9-17.534-4.144-26.291-6.447-2.48 9.163-4.844 17.898-7.621 26.598-1.519-.007-2.624.022-3.729.05 2.585-10.04 5.17-20.08 8.347-30.507 1.977-.454 3.361-.52 5.114-.46 8.74 2.393 17.113 4.66 25.486 6.928m20.943-60.764c-1.027-.017-2.053-.033-3.462-.097a397 397 0 0 1 8.009-30.456c1.86-.286 3.16-.216 4.768.047 8.801 2.234 17.294 4.276 25.84 6.688-.25 1.8-.553 3.228-1.052 4.663a3 3 0 0 1-.96-.162c-8.767-2.395-17.162-4.66-25.861-7.008-2.536 9.167-4.91 17.746-7.282 26.325"/><path fill="#141414" d="M605.249 699.022c-.176-1.2.037-2.357.91-3.77 7.555 1.517 14.47 3.223 21.34 5.095 2.453.668 4.61 1.301 5.472-2.047 1.98-7.697 3.991-15.386 6.371-23.108 1.823-.341 3.264-.653 4.705-.965-2.408 9.263-4.819 18.524-7.221 27.788-1.044 4.026-3.83 4.594-7.313 3.643-7.965-2.174-15.918-4.391-24.264-6.636"/><path fill="#7D7D7D" d="M730.551 335.188c1.173.152 2.042.489 3.26 1.312-1.827 8.952-4.002 17.417-6.32 26.443 9.06 2.379 17.682 4.643 26.415 6.989.11.08.327.247.205.578-.527 1.435-.932 2.54-1.726 3.62-8.636-2.127-16.882-4.23-25.361-6.566-1.447-.694-2.66-1.155-3.874-1.616.99-5.288 1.81-10.614 3.02-15.85 1.145-4.958 2.702-9.82 4.381-14.91"/><path fill="#141414" d="M561.03 615.85c-1.4.022-2.798.044-4.616.096 1.94-9.43 4.227-18.909 6.697-28.34.988-3.774 4.066-2.787 6.557-2.163 8.18 2.05 16.315 4.286 24.847 6.497.022 1.706-.335 3.364-1.182 4.961-8.09-2.28-15.669-4.587-23.325-6.595-.843-.22-2.854 1.08-3.106 2.005-2.118 7.803-3.953 15.682-5.873 23.54"/><path fill="#7D7D7D" d="M644.244 673.905c-1.638.634-3.08.946-5.28 1.185-8.751-2.122-16.743-4.172-24.855-6.438-.382-.438-.684-.558-1.026-.577.119-1.084.238-2.169.614-3.685.258-.432.585-.488.957-.424a6865 6865 0 0 1 25.825 6.927c.594-2.172 1.034-3.926 1.554-5.656 2.03-6.754 4.086-13.5 6.132-20.248.867-.16 1.733-.319 2.927-.415a204 204 0 0 1-3.204 16.18c-1.028 4.305-2.289 8.554-3.644 13.15"/><path fill="#141414" d="M949.984 626.162c1.38.077 2.76.154 4.555.241.416.01.27.355.27.355s.24.288.332.45c-2.304 8.559-4.865 16.914-7.022 25.372-1.037 4.068-3.242 4.977-6.916 3.992a2878 2878 0 0 0-24.75-6.517c-.116-1.285.15-2.524 1.01-3.978 7.934 1.678 15.252 3.668 22.639 5.36 1.126.257 3.497-.604 3.72-1.394 2.243-7.907 4.156-15.907 6.162-23.881m26.944-97.055c-.393 1.373-1 2.402-2.178 3.613-7.916-1.816-15.302-3.679-22.588-5.876-2.922-.882-3.686.035-4.325 2.746-1.783 7.568-3.909 15.055-5.9 22.574-1.387.018-2.775.036-4.557.196-.327-.105-.258-.35-.31-.96a699 699 0 0 1 6.843-24.461c2-6.666 2.05-6.525 8.514-4.693 8.063 2.285 16.188 4.354 24.5 6.86"/><path fill="#121212" d="M825.007 724.1c1.343.4 2.509 1.161 3.793 2.469-2.239 8.912-4.597 17.279-7.09 26.127l26.376 6.314a186 186 0 0 1-1.108 5.233c-7.332-1.85-14.536-4.05-21.754-6.202-1.576-.47-3.236-.662-4.798-1.163-2.538-.816-3.702-2.246-2.858-5.227 2.555-9.024 4.86-18.12 7.44-27.551M664.026 477.832c-1.385.066-2.77.133-4.564.28 1.891-8.855 4.31-17.761 6.44-26.736.971-4.098 3.278-4.926 6.943-3.94a2532 2532 0 0 0 24.758 6.515c.144 1.183-.096 2.318-.923 3.754-7.622-1.531-14.62-3.533-21.72-5.062-1.53-.33-4.662.678-4.96 1.688-2.283 7.748-4.048 15.648-5.974 23.5"/><path fill="#7D7D7D" d="M878.99 539.988c.32-1.549.64-3.098 1.178-4.908 1.594.498 2.886 1.56 4.36 1.969 12.644 3.5 25.322 6.882 38.255 10.542-.111 1.226-.487 2.207-1.342 3.49-14.47-3.497-28.46-7.295-42.45-11.093"/><path fill="#F2F2F2" d="M650.697 509.205c1.341-.307 2.446-.336 3.953-.324.402.04.414.058.373.421a59 59 0 0 1-1.316 4.9c-2.796 9.765-5.405 19.189-8.389 28.673-1.467-.255-2.56-.57-3.654-.886.24-.899.478-1.798.696-3.047a1195 1195 0 0 1 8.337-29.737m223.428-74.657c-1.479 1.282.117 6.179-4.466 3.002 2.486-11.246 5.337-21.992 8.189-32.738l4.148-1.16c-.413 1.976-.693 3.319-.946 5.04-2.284 8.748-4.595 17.118-6.925 25.856"/><path fill="#121212" d="M722.843 366.157c1.52.252 2.734.713 3.871 1.64a4955 4955 0 0 1-6.884 25.628c-1.3-.07-2.6-.141-4.288-.164 2.072-8.932 4.533-17.914 7.3-27.104"/><path fill="#7D7D7D" d="M1026.675 542.249c-2.085 3.885-4.293-.91-6.845-.127-.924.284-2.432-1.336-3.771-2.39 3.354.587 6.805 1.476 10.616 2.517m8.467 32.449c-1.891-3.203-1.112-6.159 2.029-8.72-.362 2.793-1.077 5.62-2.029 8.72m2.547-29.499c-2.733 3.863-4.2-.906-6.626-1.449 2.028.227 4.158.76 6.626 1.449m-106.011 4.802c-2.378 3.553-3.492-1.037-5.62-1.257 1.71.158 3.516.616 5.62 1.257m108.106 7.704c-3.269-1.335-1.55-2.483.593-3.678.062 1.078-.194 2.215-.593 3.678"/><path fill="#8A8A8A" d="M752.626 270.054c8.738 2.235 17.229 4.479 26.15 6.835 2.38-8.489 4.744-16.917 7.3-25.69 1.171-.327 2.15-.31 3.6-.002.525.476.577.661.629.846-2.312 8.504-4.79 16.969-6.858 25.532-.885 3.66-2.584 4.584-6.028 3.624-8.489-2.366-17.016-4.592-25.883-6.94-.086-1.205.183-2.346.402-3.846-.051-.358.442-.35.688-.359"/><path fill="#121212" d="M847.535 161.803c1.54.57 2.722 1.85 4.145 2.235 17.453 4.721 34.94 9.311 52.812 13.944.155 1.143-.083 2.278-.491 3.722-11.415-2.515-22.65-5.372-33.905-8.154-7.71-1.906-15.448-3.707-23.588-5.548-.017-1.964.382-3.934 1.027-6.199m-56.841 90.234c-.441-.179-.493-.364-.65-.816.29-1.119.688-1.97 1.218-3.076 7.516 1.559 14.968 3.141 22.255 5.283 3.766 1.106 5.208-.22 6.037-3.536 1.764-7.056 3.614-14.09 5.44-21.537 1.075-.365 2.14-.327 3.602-.33-1.968 9.56-4.172 19.207-6.786 28.741-.924 3.37-3.83 2.199-6.27 1.56a1557 1557 0 0 0-24.846-6.289"/><path fill="#8A8A8A" d="M647.908 643.755c-8.818-1.863-17.599-4.1-26.851-6.458-2.307 8.664-4.596 17.259-6.83 26.23.055.375-.272.431-.435.46-1.105-.227-2.047-.482-3.345-.83 1.975-9.58 4.147-19.115 6.87-28.49.296-1.021 3.952-1.922 5.733-1.51 8.414 1.947 16.718 4.371 25.428 6.65.067 1.207-.233 2.391-.57 3.948m190.257 47.365c8.719 1.961 17.292 4.497 25.992 6.478 4.517 1.029 4.51 3.641 3.612 6.993a1156 1156 0 0 1-7.018 25.139c-1.188-.1-2.147-.452-3.48-1.233 1.845-8.907 4.065-17.384 6.417-26.362l-26.505-6.897s-.16-.215-.243-.32c.322-1.223.727-2.339 1.225-3.799m60.829 20.645c-1.864 7.422-3.664 14.6-5.67 21.722-.913 3.246-.666 5.005 3.288 5.86 7.072 1.529 13.987 3.784 21.313 5.96.243 1.214.141 2.202-.066 3.552-9.093-1.96-18.083-4.283-27.734-6.747-1.219-.444-1.776-.748-2.334-1.05 2.41-10.18 4.821-20.36 7.462-30.791 1.15.087 2.07.425 3.365.73.37.143.363.32.376.764"/><path fill="#121212" d="M887.495 741.244c.854.12 1.411.423 2.251.876-2.035 9.794-4.307 19.45-6.682 29.079-2.299 9.32-4.702 18.613-7.059 28.324-1.153.205-2.307.003-3.738-.423a382 382 0 0 1 4.845-21.924c2.551-10.117 5.223-20.205 7.931-30.281.505-1.88 1.427-3.647 2.452-5.65m-287.091-44.499c-7.317-1.472-14.482-2.872-21.418-5.012-4.24-1.309-6.086-.42-7 3.878-1.482 6.958-3.333 13.836-5.05 21.173-1.171.235-2.32.045-3.698-.41 1.468-7.852 2.927-15.503 4.967-22.995.966-3.55.025-4.767-3.326-5.452-7.288-1.49-14.52-3.257-22.187-4.907-.07-1.505.274-3.012.852-4.76 7.89 1.787 15.577 3.696 23.178 5.906 2.759.802 3.92.12 4.568-2.582a577 577 0 0 1 6.015-22.908c1.418-.224 2.505-.065 3.593.094-1.628 7.373-2.943 14.836-5.004 22.086-1.203 4.232-.142 6.044 3.945 6.988 6.903 1.596 13.746 3.453 21.03 5.238.204 1.166-.006 2.294-.465 3.663"/><path fill="#8A8A8A" d="M581.07 658.466c-1.26.146-2.347-.013-3.768-.184a1814 1814 0 0 1-25.985-7.177c-.24-1.236-.131-2.317-.02-3.808.003-.41.449-.39 1.032-.282 8.991 2.382 17.4 4.656 26.165 7.026l6.84-26.02s.452-.04.677-.073a87 87 0 0 1 3.266-.167c-2.45 10.128-5.242 20.255-8.206 30.685"/><path fill="#141414" d="M614.109 668.652c-.082.254-.285.291-.796.338-.31.01-.414-.464-.322-.69.434-.206.736-.086 1.118.352"/><path fill="#121212" d="M919.925 616.763c-7.536-1.514-14.992-3.09-22.32-5.13-3.58-.995-4.952-.29-5.89 3.448-4.116 16.397-8.48 32.735-12.985 49.03-.914 3.306-.132 4.36 3.083 5.103 7.263 1.679 14.427 3.79 22.033 5.777.218 1.204.034 2.356-.406 3.75-9.384-2.063-18.55-4.236-27.595-6.83-1.171-.336-2.717-3.102-2.408-4.31a2992 2992 0 0 1 15.758-58.946c.319-1.146 2.858-2.716 3.95-2.442 9.272 2.327 18.448 5.037 27.842 7.983-.184 1.005-.556 1.66-1.062 2.567"/><path fill="#141414" d="M925.823 619.652c-.278.605-.76.951-1.554 1.32.243-.511.797-1.045 1.554-1.32"/><path fill="#121212" d="M924.517 352.713c-7.915-1.543-15.643-3.196-23.277-5.207-2.694-.71-4.066-.248-4.726 2.454-1.837 7.524-3.729 15.035-5.649 22.99-1.33.383-2.608.326-4.25.418 2.024-9.261 4.342-18.69 6.836-28.07.766-2.883 2.683-3.657 5.752-2.794 8.402 2.365 16.894 4.408 25.787 6.624.208 1.142-.02 2.238-.473 3.585m-59.392 117.791c-.58 1.931-1.682 3.584-2.225 5.405-1.61 5.4-2.978 10.874-4.485 16.306-.904 3.257-.407 5.198 3.515 6.048 7.119 1.541 14.103 3.703 21.517 5.664.04 1.745-.295 3.432-.831 5.438-5.214-1.562-10.177-3.584-15.252-5.27-3.284-1.092-6.708-1.804-10.11-2.483-3.768-.752-5.012-3.05-4.062-6.496a754 754 0 0 1 7.674-25.954c1.528.232 2.76.687 4.259 1.342"/><path fill="#8A8A8A" d="M753.906 369.932c2.326-8.793 4.762-17.504 7.263-26.446-8.81-2.416-17.225-4.724-25.907-7.294-.17-1.425-.074-2.588.3-3.962 8.752 2.057 17.195 4.45 25.712 6.537 3.861.947 5.255 2.519 3.983 6.648-2.58 8.371-4.72 16.877-7.705 25.505-1.549-.129-2.434-.435-3.319-.741 0 0-.217-.167-.327-.247"/><path fill="#121212" d="M702.382 456.191c7.555 1.54 14.972 3.208 22.282 5.26 3.45.967 5.077.434 5.903-3.351 1.547-7.09 3.602-14.068 5.445-21.577 0-.485-.051-.656.323-.57 1.817-.222 3.26-.531 4.701-.84-2.11 8.125-4.13 16.277-6.387 24.362-.662 2.374-1.022 4.415 1.83 5.136 7.653 1.934 15.355 3.674 23.453 5.877.446.839.478 1.29.364 2.024-.53 1.017-.916 1.753-1.687 2.44-8.85-2.285-17.314-4.522-26.464-6.94-2.097 9.19-4.111 18.018-6.46 26.846-1.634-.024-2.931-.049-4.229-.074 1.647-6.85 3.127-13.746 4.986-20.538 2.045-7.47 2.184-7.377-5.065-9.22-6.383-1.624-12.733-3.378-19.516-5.167-.166-1.189.086-2.285.521-3.668"/><path fill="#8A8A8A" d="M655.023 509.302c8.806 1.92 17.572 4.204 26.626 6.562 2.367-8.508 4.705-16.91 7.289-25.595 1.192-.4 2.137-.518 3.43-.542-1.996 9.687-4.2 19.321-6.89 28.817-.272.956-3.652 1.834-5.298 1.462-8.55-1.933-17.006-4.284-25.89-6.317-.034-1.226.329-2.625.733-4.387"/><path fill="#7D7D7D" d="M736.025 436.126c-8.422-2.292-16.857-4.673-25.681-7.117-.147-1.211.095-2.36.55-3.795a308 308 0 0 1 24.765 6.19c.318 1.8.31 3.132.302 4.463 0 0 .05.171.064.26"/><path fill="#8A8A8A" d="M632.98 574.052c-8.49-2.388-16.98-4.776-25.706-7.425-.211-1.112-.186-1.964-.11-3.242.227-.438.404-.45 1.227-.455 9.015 2.164 17.383 4.322 25.908 6.519 1.792-6.806 3.444-12.682 4.857-18.615.67-2.811.881-5.731 1.3-8.602.202-.042.403-.083.906-.184 1.396.257 2.49.572 3.956.827a431 431 0 0 1-8.53 30.903c-1.648.33-2.728.302-3.808.274"/><path fill="#121212" d="M632.976 574.446c1.084-.366 2.164-.338 3.648-.343-1.98 9.561-4.206 19.202-6.975 28.684-.301 1.033-3.905 1.948-5.679 1.559-8.378-1.842-16.652-4.156-25.348-6.313-.033-1.656.32-3.3.91-5.224 8.243 2.184 16.211 4.784 24.304 6.91.834.218 3.074-2.2 3.532-3.732 2.088-6.983 3.774-14.086 5.608-21.541"/><path fill="#141414" d="M585.004 622.37c.253-.302.704-.343 1.493-.385.29.4.24.801-.078 1.372-.585-.129-.901-.427-1.415-.987"/><path fill="#F2F2F2" d="M745.978 400.305c2.205-8.726 4.463-17.08 6.758-25.793.443-1.463.848-2.567 1.375-4.002 1.007-.025 1.892.281 3.134.54a555 555 0 0 1-8.729 33.479c-1.464.402-2.429.418-3.394.434.303-1.43.606-2.859.856-4.658"/><path fill="#8A8A8A" d="M744.926 404.968c1.161-.021 2.126-.037 3.456-.09-2.117 9.816-4.6 19.67-7.213 29.88-1.575.664-3.017.973-4.834 1.196-.366-1.418-.358-2.75-.337-4.48.765-1.297 1.917-2.083 2.207-3.112 2.115-7.504 4.055-15.058 6.092-23.011.04-.415.432-.377.629-.383"/><path fill="#F2F2F2" d="M793.799 346.633c5.032-18.806 10.137-37.169 14.812-55.64 1.019-4.026 2.943-4.92 6.337-4.025 18.906 4.991 37.793 10.05 56.679 15.115 2.887.774 3.934 2.441 3.067 5.59-5.23 19.015-10.426 38.041-15.354 57.136-.905 3.508-2.798 3.81-5.424 3.11-19.21-5.127-38.388-10.375-57.602-15.49-3.223-.857-4.124-2.44-2.515-5.796m31.613 9.097c1.15.197 2.3.394 4.024 1.08l25.607 6.643 15.273-56.956c-2.69-.744-5.061-1.432-7.448-2.056-16.145-4.22-32.293-8.426-48.738-13.144-.323.238-.647.477-1.217 1.456-2.246 8.388-4.493 16.776-6.976 25.726-.27 1.178-.54 2.356-1.082 4.265l-7.033 25.655c9.285 2.33 18.205 4.569 27.59 7.33M839.829 559.1c-2.625 10.6-5.13 21.235-8.081 31.744-.262.93-3.638 1.822-5.233 1.416-18.3-4.658-36.541-9.546-54.784-14.424-20.803-5.563-41.569-11.267-62.406-16.698-4.304-1.122-5.738-2.843-4.376-7.323 2.743-9.024 5.049-18.18 8.152-27.61 1.666-.255 2.714-.181 3.78.238-.238 1.45-.493 2.553-.842 3.964-.101.734-.107 1.159-.372 1.858-2.353 8.173-4.447 16.072-6.605 24.21 9.293 2.363 18.08 4.597 27.103 7.082 1.366.48 2.493.71 3.932 1.152 18.992 5.18 37.67 10.148 56.69 15.22 1.967.404 3.593.702 5.546 1.2 8.654 2.475 16.982 4.748 25.64 7.111 2.394-9.05 4.657-17.603 7.089-26.456.457-1.406.744-2.51 1.425-3.674 1.376.29 2.359.64 3.342.99"/><path fill="#8A8A8A" d="M760.441 472.23c-.031-.451-.063-.903-.064-1.701 2.786-9.851 5.541-19.356 8.861-29.218 1.629-.336 2.693-.316 4.048-.068 19.42 5.306 38.549 10.383 57.957 15.591.997.515 1.716.898 2.435 1.282-2.533 10.144-5.066 20.288-8.207 30.627-4.617-2.373-3.576 2.103-5.29 3.14-19.013-5.229-37.64-10.322-56.369-15.787.754-3.357.04-4.873-3.37-3.866m62.652 10.386 5.895-21.718c-16.068-4.333-31.611-8.51-47.146-12.72-10.14-2.749-10.135-2.772-12.748 7.382-1.422 5.528-2.837 11.058-4.304 16.78 18.384 4.963 36.003 9.68 53.594 14.5 3.228.883 4.187-.74 4.71-4.224"/><path fill="#121212" d="M833.999 457.89c-1.04-.158-1.759-.541-2.752-1.456a320 320 0 0 1 5.183-22.145c.793-2.917.605-4.517-2.836-5.415-16.649-4.345-33.214-9.014-49.873-13.32-1.292-.334-4.144.927-4.467 1.994-2.347 7.743-4.23 15.627-6.259 23.467-1.064-.02-2.128-.04-3.59-.03 1.987-9.59 4.268-19.237 6.923-28.781.262-.942 3.016-2.05 4.264-1.728 19.543 5.05 39.021 10.353 58.537 15.511 2.907.769 3.101 2.463 2.439 4.884-2.444 8.923-4.836 17.86-7.569 27.018"/><path fill="#8A8A8A" d="M840.119 558.948c-1.273-.198-2.256-.548-3.644-1.067-.405-.17-.416-.629-.217-.964 2.445-8.71 4.691-17.085 7.022-25.777-9.202-2.528-17.775-4.883-26.328-7.607.41-1.429.8-2.489 1.19-3.549 9.009 2.32 18.006 4.688 27.033 6.932 3.283.816 3.11 3.044 2.47 5.431-2.369 8.828-4.817 17.635-7.526 26.6m-123.256-32.85c-1.048-.073-2.096-.147-3.542-.192 2.263-10.214 4.924-20.457 7.86-30.91 1.573-.186 2.87-.161 4.862-.002 9.082 2.391 17.47 4.649 25.881 7.267-.308 1.506-.64 2.65-1.362 3.747a4527 4527 0 0 1-26.27-6.906c-2.42 9.193-4.722 17.947-7.126 26.775z"/><path fill="#F2F2F2" d="M818.12 519.595c-.368 1.45-.758 2.51-1.356 4.024-.208.454-.604.574-.833.36-1.073-.805-1.916-1.396-2.784-2.394 2.457-10.127 4.939-19.848 7.42-29.568 1.328-1.171.287-5.647 4.66-3.036-2.131 10.104-4.63 20.165-7.106 30.614"/><path fill="#EEE" d="M751.924 502.26c2.35-9.066 4.722-17.77 7.083-26.867.373-1.128.758-1.864 1.289-2.88 3.556-1.29 4.27.226 3.226 3.875-3.06 10.577-5.932 20.489-9.137 30.271-1.267-.019-2.202.092-3.189-.008-.052-.21-.245-.597-.245-.597.333-1.144.665-2.288.973-3.794"/><path fill="#141414" d="M825.179 355.468c1.506-7.644 3.021-15.09 5.08-22.382.998-3.54.064-4.595-3.327-5.374-7.073-1.626-14.03-3.763-21.42-5.695-.115-1.182.155-2.36.543-3.82 9.049 2.036 17.974 4.367 26.91 6.662 3.74.961 3.233 3.497 2.486 6.253a2160 2160 0 0 0-6.547 24.792c-1.192.22-2.342.023-3.725-.436M814.28 291.55c-.061.304-.27.354-.8.433.003-.21.327-.448.8-.433"/><path fill="#7D7D7D" d="M835.062 561.784c-8.87-2.04-17.57-4.38-26.905-6.89-1.461-.748-2.289-1.328-3.116-1.907 1.951-8.119 3.889-16.24 5.862-24.353a55 55 0 0 1 1.978-6.405c1.134.354 1.977.945 3.079 2.152-1.867 9.038-3.992 17.46-6.247 26.392l26.346 6.48s.011.458.023.688a34 34 0 0 1-1.02 3.843m-93.096-24.599a3565 3565 0 0 1-23.738-6.395 68 68 0 0 0-2.095-.69c.255-1.104.51-2.208.747-3.657-.017-.346.184-.494.656-.482 8.928 2.297 17.383 4.58 25.968 6.9l7.745-26c.934-.11 1.869-.22 3.136-.202a408 408 0 0 1-7.727 29.935c-1.936.5-3.314.545-4.692.59"/><path fill="#141414" d="M741.974 537.582c1.37-.443 2.748-.488 4.522-.662-1.915 8.832-4.225 17.792-6.623 27.165-1.215.183-2.342-.048-3.708-.528 1.78-8.693 3.799-17.136 5.809-25.975m62.791 15.656c1.103.328 1.93.908 3.003 1.67-1.757 8.524-3.758 16.867-5.76 25.616-1.628.107-3.254-.191-5.221-.594 2.182-8.419 4.703-16.733 7.228-25.046.142-.47.315-.93.75-1.646m-88.726-22.831c.604-.147 1.114.013 1.79.388-.32.53-.808.846-1.6 1.18-.297-.41-.291-.834-.19-1.568"/></svg>