<svg xmlns="http://www.w3.org/2000/svg" xml:space="preserve" viewBox="0 0 1600 900"><path fill="#919191" d="M741.54 119.04c-1.57 0-4.01.14-4.54 1.07-2.14 3.76-5.47 2.84-8.6 2.88-3.83.05-7.67-.12-11.5.07-1.54.08-3.99.44-4.4 1.38-1.39 3.17-3.96 2.95-6.21 2.48-7.63-1.61-13.08 5.64-20.47 4.76-.4-.04-.98.24-1.3.55-4.62 4.58-11.9 2.45-16.73 6.7-1.54 1.35-3.85 1.83-5.81 2.7-7.61.74-13.68 5-19.95 8.77-2.83 1.09-7.28-1.16-7.48 4.5-6.19.17-18.35 7.46-20.44 12.15-6.52-1.34-8.82 3.84-11.95 7.87-2.81.55-6.42-1.38-8 3.6-.33 1.04-3.37 6.2-7.83 4.8-.44-.15-1.22.4-1.68.8-4.38 3.92-8.9 7.7-13.03 11.85-4.7 4.7-9 9.77-13.56 14.6a1235 1235 0 0 1-15.12 15.68c-1.62 1.66-3.39 3.18-5.12 4.73-3.48 3.1-7.4 5.8-10.35 9.33-3.38 4.03-4.65 9.55-8.48 13.4-1.33 1.33-3 2.45-3.93 4.01-1.7 2.85-2.36 7.85-4.57 8.58-5.03 1.68-2.91 5.17-3.6 8-4.66 2.83-9.15 5.79-7.86 12.55-6.6.01-2.9 5.18-4.43 7.92-5.93.2-2.6 5.18-3.96 7.98-5.94.2-2.65 5.18-4.58 7.61-3.12 6.35-7.89 12.05-7.17 20.03-7.3 1.9-2.27 8.03-4.38 12.1-6.9 1.81-1.9 7.92-3.78 11.58-7.32 4-1.72 11.07-4.5 16.7-3.9-.57-3.22 2.7-3.23 5.53 0 2.66.13 5.34-.06 7.99-.1 1.19-.82 2.33-1.3 3.48-.86 2.06-2.45 4.09-2.52 6.16-.32 9.66-.21 19.32-.26 28.99l.16 7.67c-.06-2.86-.11-5.27-.56-7.64-6.06 1.56-2.5 6.07-3.04 9 1.42-.42 2.52-.66 3.6-1.36.02.45-.02.41-.04.39 1.08-.27 2.18-.51 3.6-.93.35-9.32.35-18.49.46-27.65.01-1.57-.02-3.62.88-4.63 3.98-4.47 2.74-9.8 3.2-14.92.24-2.74 1.74-5.36 2.6-8.06.5-1.64 1.16-3.33 1.22-5.02.14-4.26.12-8.13 3.23-11.97 1.79-2.21.83-6.64 1.12-10.23 7.1-1.88 2.1-7.98 5.19-11.51.84-2.12 1.78-4.21 2.49-6.37.55-1.67.6-3.51 1.24-5.13 1.15-2.87 2.58-5.63 4.25-9.22 4.23-.23 2.12-4.62 2.67-7.94 5.63-.25 3.39-4.7 4.03-7.99 5.55-.27 3.4-4.68 4.86-7.2l12.37-19.74-1.24-.76c4.5-2.76 9.02-5.51 8.18-9.96 18.06-27.8 43.56-46.8 64.63-70.47 1.7-.26 4.61.17 6.05-1.1 3.58-3.11 6.48-7 10.03-11.03 5.84 1.08 8.84-3.36 11.67-8.07l.85 1.27c3.8-2.39 7.56-4.85 11.42-7.15 3.6-2.15 7.3-4.15 10.98-6.2 1.65-.91 3.35-1.76 5.17-2.65 3.01-1.66 5.98-4.61 9.03-4.7 5.51-.17 8.55-6.63 14.61-4.85 1.07.32 2.89-1.92 4.61-2.52 2.87-1.58 5.7-3.25 8.63-4.7.97-.49 2.21-.53 3.33-.56 3.2-.08 5.9-.16 8.69-2.95 1.75-1.75 6.24-.57 9.43-1.16 1.91-.35 3.67-1.56 5.32-2.89 4.83-3.08 11.88 2.47 16.56-5.02 3.33 0 7.48.03 11.63-.01 3.34-.03 6.91.78 9-3.23.36-.7 2.38-.73 3.64-.73q41.49-.05 82.98-.02c1 0 2.54-.3 2.9.2 4.45 6.18 10.94 3 16.54 3.81 1.55.23 3.64.23 4.48 1.2 2.24 2.61 4.85 2.98 7.97 2.82 3.64-.18 7.3-.04 10.95-.04l-.36 1.53c1.96.82 3.88 2.16 5.91 2.36 3.58.34 6.86 0 9.96 3.06 1.67 1.64 5.53 1.05 8.51 1.49 1.96 6.98 8.1 1.87 12.18 4.1.27 5.26 4.73 2.98 7.76 3.57l-.38 1.29 5.87 2.6c1.56.7 3.14 1.35 4.68 2.09 4.1 1.95 8.16 3.95 12.25 5.9.56.26 1.76.2 1.79.4.61 5.34 4.82 3.11 7.67 3.7l-.57 1.33 8.2 3.5-.3.15 25.57 17.06c.91 2.65 10.34 9.71 14.31 9.96l44.89 44.2-.98.7c2.86 3.68 6.43 7.03 8.32 11.15 1.39 3.03 5.33 3.35 5.69 7.65.24 2.9 4.18 5.46 6.36 8.25.6.75.74 1.84 1.26 2.67a84 84 0 0 0 7.34 10.26c1.1 2.7-1.09 7.12 4.4 7.44.99 2.93-1.62 6.89 3.73 8.14 1.6.37 2.4 4.45 3.41 6.9 1.77 4.33 3.31 8.75 5.15 13.05.7 1.62 1.95 3 3.36 4.26 1.25 2.69-1.4 7.34 4.36 7.55.66 11.02.66 11.01 3.77 12.15 2.17 3.89-2.91 10.02 4.46 12.16 0 3.08-.06 6.23.04 9.38.03 1.08.12 2.65.8 3.13 3.8 2.69 3.33 6.54 3.13 10.31-.16 3.08.1 5.73 2.74 8 1.06.92 1.02 3.24 1.27 4.95.77 5.45-2.28 11.75 3.78 16.06.59.41.23 2.22.23 3.38.01 26.83.05 53.66-.09 80.48 0 1.59-1.54 3.12-2.18 4.75-.68 1.76-1.57 3.57-1.64 5.4-.21 5.64-.08 11.3-.08 16.95l-1.49-.35c-.84 1.96-2.03 3.86-2.41 5.9-.43 2.26.2 4.7-.2 6.97-.32 1.8-1.51 3.44-2.32 5.15-.21.44-.5.85-.63 1.3-1.66 5.94-3.25 11.9-4.99 17.82-.5 1.68-1.62 3.17-2.13 4.85-1 3.33-1.76 6.73-3.17 9.9-.89 1.97-1.86 3.9-2.62 5.9-.34.9.1 2.6-.38 2.85-5.21 2.7-3.18 7.65-3.81 11.99-5.82.2-3.25 4.8-4.06 8-5.8.16-3.16 4.81-3.95 7.74l-1.09-.71-8.63 13.03c-3.7.17-1.79 4.3-3 6.68l-9.55 13.85c-2.53.86-5.55 5.3-5.6 9.8-2.98 3.32-5.44 6.14-8.02 8.87a22 22 0 0 1-3.97 3.45c-5.19 3.36-4.83 10.67-10.8 13.98-3.89 2.14-6 7.3-9.3 10.75-2.98 3.11-6.52 5.7-9.77 8.57-2.5 2.2-4.5 4.66-8.54 4.76-1.84.05-3.67 3.2-5.37 5.05-2.48 2.7-4.54 5.29-8.39 6.97-4.9 2.15-8.7 6.85-13.85 11.2-5.04-1.22-7.32 4-11 8.33-2.1.92-7-2.24-7.24 3.76-2.98.9-6.45-1.11-8.59 3.73-1.13 2.56-7.02 2.85-10.57 4.57-4.05 1.96-7.86 4.41-11.81 6.57-1.09.6-2.33.9-3.49 1.36-2.12.84-4.24 1.7-6.19 3.2-7.7-.01-13.36 4.83-19.72 7.8-8.56 3.53-13.27-3.34-19.35-8.27v-84.65c0-7.83.03-15.67-.01-23.5-.02-4.51.5-8.88-2.84-13.04-1.62-2.02-.62-6-1.23-9-.38-1.9-1.54-3.62-3.04-5.23-1.63-2.67 1.17-7.4-3.14-7.57l-5.66-10.4c3.21-1.58 6.48-3.58 10.02-4.76 2.4-.8 5.21-.35 7.83-.6 4.3-.41 8.9 1.43 12.5-3.4 1.11-1.5 5.7-.18 8.61-.68 2.04-.34 3.93-1.57 5.75-2.96 3.62-2.63 9.77 2.47 11.8-4.75 6.65-.1 22.44-8.69 23.9-12.19 5.9 1.43 8.41-3.04 11.6-6.74 1.83-2.13 4.5-3.52 6.57-5.46a191 191 0 0 0 9.15-9.17c1.94-2.08 3.48-4.54 5.47-6.58 3.17-3.24 8.53-5.08 6.36-11.6 6.15-.14 3.87-4.6 4.55-8.03 5.66-.05 3.28-4.58 4.95-7.22.95-1.97 2-3.89 2.83-5.9a82 82 0 0 0 2.74-7.53c.6-1.96 1.17-4 1.23-6.03.1-3.8-.2-7.54 3.1-10.47.77-.69.89-2.36.92-3.59.1-4.33-.05-8.67.08-13 .05-1.57.09-3.68 1.04-4.59 3.5-3.32 2.94-7.4 2.93-11.47-.03-9.33.01-18.67-.02-28-.02-4.51.12-8.7-2.75-13.07-1.95-2.98-.75-7.95-1.31-11.98-.3-2.11-1.38-4.11-2.04-6.19-.67-2.11-1.18-4.29-1.91-6.38a18 18 0 0 0-3.08-5.74c-1.94-2.5 1.74-7.68-4.57-7.4-1.07-3.24 1.73-7.97-4.43-8.18 1.49-6.24-3.28-8.44-6.7-11.85-2.4-2.4-4.12-5.96-5.02-9.31-.84-3.1-.18-6.6-.18-9.92l1.47.36c.85-1.97 2.39-3.92 2.42-5.9.2-14.16.11-28.33.1-42.5 0-.99.34-2.49-.17-2.9-4.93-4-3.52-9.5-3.97-14.64-.12-1.4-2.02-2.64-3.7-4.69-.55-9.05-7.62-14.69-16.33-9.7-6.41 3.68-12.24 2.69-18.42 3.41-1.4.17-2.77.78-4.08 1.34a75 75 0 0 0-5.55 2.64 16 16 0 0 0-4.36 3.14c-9.7.68-17.27 5.72-24.1 12.23-2.64 1.35-7.36-1.43-7.65 4.69-6.77-1.6-8.97 3.72-12.88 7.8h-6.13l.36-1.26c-1.96-.88-3.85-2.17-5.9-2.51-2.6-.44-5.32-.07-7.98-.12-2.51-.05-5.14.7-6.73-2.6-.49-1.01-3.2-1.29-4.91-1.33-6.16-.16-12.32-.07-18.95-.14-2.86-.01-5.27.04-8.13.1-.45.02-.41-.02-.39-.04.27 1.08.51 2.18 1.38 3.65 8.1.36 15.6.31 23.07.42 1.37.02 3.3.23 3.99 1.11 2.28 2.94 5.23 2.97 8.42 2.87 3.48-.11 6.97-.03 10.45-.03l-.36 1.35c1.96.89 3.84 2.05 5.9 2.56 1.72.43 3.63.17 5.46.07 2.43-.13 4.86.83 6.09-3.18.66-2.16 4.85-3.25 7.46-4.8 1.77-1.05 3.57-2.07 6.47-3.74 2.58.88 4.74-1.72 7.55-4.1 2.93-2.5 7.69-2.94 10.38-5.58 2.06-2.01 3.77-2.33 6.18-2.69 2.36-.35 4.59-1.58 6.87-2.42 3.55-2.97 9.56 1.78 11.5-5.58h14.06l1.85-3.9c1.32.23 2.84-.08 4.27-.02-1.4-.07-2.94.25-4.27.02a14 14 0 0 0-1.45 3.94 76 76 0 0 0 9.63-.38c-.38-1.49-.97-2.35-1.67-2.87a5 5 0 0 1 2.09 2.92 18 18 0 0 1 2.64 3.8c.73 1.49 1.22 3.09 1.98 4.56.54 1.04 1.86 1.9 1.94 2.93.27 3.14-.08 6.33.19 9.47.1 1.24 1.15 2.42 1.83 3.6.66 1.15 1.97 2.26 1.99 3.4.15 11.15.13 22.3.03 33.45-.01 1.33-.78 2.68-1.32 3.97-.82 1.91-2.22 3.7-2.51 5.67-.46 3.1-.2 6.3-.25 9.47l.12 8.1c3.77 4.99 7.53 9.13 11.3 13.27 1.3 2.42-1.19 7 4.55 7.08.64 3.38-1.55 7.8 4.03 8.07.58 3.31-1.57 7.71 3.59 7.96 2.2 4.15-2.92 10.3 4.2 12.14 1.82 6.76-2.8 14.59 4.19 20.16.42.34.15 1.6.15 2.43q.02 16.74-.01 33.5c0 1.11.06 2.91-.54 3.24-4.74 2.59-3.09 7-3.46 10.88-.54 5.55 2.11 11.76-3.44 16.34-.65.53-.5 2.17-.52 3.3-.06 2.99-.02 5.98-.02 8.93-7.42 2.07-2.36 8.2-4.54 12.31-5.18.3-3.03 4.69-3.59 7.95-5.61.3-3.4 4.75-5.07 7.08l-8.25 12.5.68.33-26.64 26.58-25.86 12.87c-2.53 1.57-7-.74-7.17 4.94-10.76.33-10.76.33-12.38 4.12-2.94 0-5.95-.17-8.92.06-1.71.14-3.42.8-5.04 1.44-1.75.7-3.54 2.57-5.08 2.35-9.22-1.35-17.62 1.77-26.13 4.28-.88.26-1.74 1.85-1.93 2.94-.59 3.38 3.21 7.87 7.75 9.5.83 2.88-1.83 7.53 4.06 7.74.5 3.44-1.53 7.95 3.48 8.24 2.65 5.6-3.36 12.76 4.63 16.46 0 36.48.2 72.97-.2 109.46a16.8 16.8 0 0 0 4.97 12.7c1.77 1.86 3.91 4.25 6.17 4.61 4.55.72 9.3.25 13.96.19.77-.01 2.11-.3 2.2-.7 1.24-5.14 5.35-2.67 8.3-3.3a19 19 0 0 0 4.37-1.5c1.3-.65 2.36-1.74 3.63-2.45 1.91-1.07 3.91-1.98 6.24-3.14 13.67-5.33 26.73-12.56 41.08-20.56 4.85 1.05 6.86-4.57 10.54-8.5 5.26 2.41 7.06-3.14 10.45-5.34 2.68-1.73 4.6-5.68 7.3-6.16 6.5-1.17 8.15-7.5 12.92-10.33 2.61-1.55 4.83-5.71 7.06-5.6 4.81.26 5.7-3.95 8.44-5.75 4.34-2.85 7.65-7.26 11.38-11.02 1.67-1.69 3.64-3.18 4.91-5.13 2.97-4.52 5.42-9.39 8.44-13.87 1.26-1.86 3.36-3.2 5.21-4.6 3.81-2.87 8.01-5.45 6.58-11.23 4.6-2.64 7.65-6.01 9.36-11.15 1.56-4.7 8.69-6.7 7.07-12 3.58-4.67 9.47-6.5 7.56-13.38 6.37-.23 3.07-5.21 4.41-8.01 5.96-.22 2.65-5.2 4.01-8 5.94-.2 2.66-5.17 3.94-7.86 1.02-.4 2.74-.61 2.94-1.27 1.9-6.2 3.53-12.47 5.21-18.6 6.65-2.36 1.87-8.39 4.52-11.91 1.39-1.45 3.11-3.27 2.88-4.8-1.33-8.75 6.55-15.75 4.47-24.58-.16-.67 1.04-1.59 1.38-2.48.84-2.17 1.95-4.34 2.2-6.6.38-3.3-.12-6.68.17-9.98.23-2.52 1.04-5 1.73-7.44.63-2.24 2.1-4.43 2.1-6.64.15-26.5.11-52.99.09-79.48 0-4.52.93-9.21-2.99-12.96-.86-.82-.91-2.7-.96-4.11-.12-4 .25-8.03-.15-11.99-.24-2.35-1.57-4.6-2.42-6.88-3.5-4.77 2.53-11.94-5.5-15.65 1.13-9.05-4.08-16.06-6.95-23.83-2.77-3.52 2.4-9.69-4.83-11.74-.92-2.84 1.86-7.56-3.15-7.73-3.9-12.1-9.9-22.5-16.26-32.68-.82-1.96-.54-5.48-1.78-6.15-6.2-3.33-6.33-10.67-10.87-15.12-3.59-3.52-5.1-9.24-8.83-12.51-3.06-2.69-4.93-5.84-7.17-8.91-1.98-2.71-3.55-5.8-5.84-8.19-3.15-3.3-6.98-5.95-10.21-9.2-3.38-3.39-6.21-7.33-9.6-10.71-3.27-3.24-7.05-5.94-10.4-9.08-4.26-3.98-6.43-10.14-13.3-11.44-2.44-.46-4.97-2.6-6.62-4.67-2.62-3.27-4.38-7.26-9.49-7.26-.55 0-1.04-1.15-1.67-1.64-2.63-2.08-5.26-4.16-7.97-6.13-1.29-.94-2.75-1.64-4.13-2.45l-10.8-6.36c-2.84-1.49-4.48-2.37-6.14-3.22-.84-.42-1.75-.7-2.56-1.19-3.75-2.22-7.34-4.78-11.26-6.67-3.83-1.85-8.08-2.85-11.99-4.56-3.13-1.38-6.03-3.27-9.04-4.94-1.83-.9-3.56-2.6-5.17-2.5-6.43.45-10.88-6.5-17.64-4.45-.25.08-.74-1.07-1.28-1.37-1.58-.85-3.17-1.96-4.88-2.22-2.43-.38-4.96-.1-7-.1-4.29-7.5-11.32-2.01-16.24-4.91-1.82-1.32-3.73-2.8-5.76-2.97-4.63-.38-9.32-.02-13.98-.18-1.34-.05-2.68-.8-3.96-1.35-1.92-.8-3.78-2.47-5.68-2.48-29.66-.16-59.32-.13-88.98-.07m69.87 159.98c2.86-.06 5.27-.11 7.64-.56-1.56-6.06-6.08-2.5-9-3.04.42 1.42.66 2.52 1.36 3.6m-1.36-3.6c-15.11-.34-30.07-.38-45.48-.36a9 9 0 0 0-1.45 3.24c.32-1.23.62-2.23.55-3.23-3.42.8-8.33-2.58-8.3 3.85 2.84.08 5.25.1 7.63-.23 0 .26-.04.27-.04.27l8.14.06c11.2.03 21.51.08 31.82.12l6.42-.12c-2.3.06-4.39.14-6.39.52 1.56 6.06 6.07 2.5 9 3.04-.42-1.4-.66-2.5-1.35-3.58.33 0 .36.04.36.04-.25-1.1-.5-2.2-.9-3.62m-54.68 3.5c-7.61-.01-14.79-.15-21.93.2-1.93.1-3.77 1.67-5.67 2.51-1.13.5-2.29 1.22-3.48 1.3-2.65.2-5.38-.25-7.97.17-2.2.36-4.26 1.58-6.38 2.42l.35 1.42h-6.45c-2.33-5.27-6.29-7.9-9.74-7.95-12.23-6.98-22.6-13.2-34.76-17.02-.47-.6-1.4-2.78-2.34-2.78-8.63-.06-16.1-6.76-25.16-4.3-1.05.28-2.82-.67-3.74-1.58a8.8 8.8 0 0 0-13.15.96c-6.72 8.77-7.57 11.1-7.96 21.62-.04.98.13 2.57-.37 2.84-5.34 2.95-3.49 7.99-3.56 12.3-.18 10.99-.07 21.99-.04 32.99 0 1.29-.22 3.28.47 3.76 5.95 4.07 2.88 10.41 3.75 15.6.36 2.08-2.39 5.54-4.62 7.05-4.41 2.97-5.65 7.56-8.26 11.42-1.94 2.87-3.5 5.01-3.23 8.72-5.95.12-3.61 4.61-5.3 7.25-.94 1.97-2.4 3.85-2.71 5.91-.5 3.39-.12 6.44-2.83 9.7-1.97 2.35-1 7.18-1.28 10.92-.22 3.1.96 6.45-2.88 8.62-1 .56-1.07 3.28-1.08 5-.1 10.34-.04 20.67 0 31.46a9 9 0 0 0 3.25 1.45c-1.23-.32-2.23-.62-3.23-.55.8 3.42-2.58 8.33 3.85 8.3-.01 6.78-.16 13.12.2 19.43.1 2 1.56 3.91 2.91 5.73 2.8 4.97-2.24 11.9 4.75 16.37-.41 7.33 4.16 13.2 7.32 19.66l3.33 8.27 1.26-.48c.56 4.95 3.68 8.22 7.19 11.48 3.33 3.11 6.1 6.81 9.19 10.2 1.7 1.87 3.5 3.64 5.29 5.44 2.29 2.31 4.5 4.73 6.93 6.86a32 32 0 0 0 5.53 3.7c4.2 2.34 8.49 4.56 13.75 7.37.05 4.08 4.45 1.93 7.16 3.4 1.96.98 3.96 1.9 5.87 2.96 1.26.71 2.33 1.8 3.62 2.44a18 18 0 0 0 4.38 1.5c2.94.64 7.07-1.83 8.25 3.32.07.3.85.73 1.22.66 9-1.77 16.25 6.69 25.5 4.25 1.81-.48 4.22 1.7 6.45 2.3 3.4.9 6.87 1.5 10.25 2.2l-5.43 9.94-.29.11-3.46 8.2h-.56c-.84 2.11-1.91 4.17-2.45 6.37a14 14 0 0 0-.05 4.97c.63 5.03-1.6 8.01-6.18 9.87-1.17.48-1.75 2.4-2.44 3.41-3.92 2.11-10.07-3.04-12.06 4.44q-15.26.01-30.48-.02c-.96 0-2.02-.1-2.84-.52-2.91-1.5-5.74-3.15-9.66-5.33-.1-3.92-4.56-1.64-6.48-2.02l-21.63-22c1.11-4.71-3.32-7.16-7.16-10.22-1.75-1.4-2.81-3.7-4.06-5.69-1.87-2.97-3.27-6.35-5.57-8.91-1.5-1.68-4.2-2.44-6.49-3.22-4.33-1.46-5.91-8.27-12.18-5.83l.52-1.71c-2.28-.85-4.55-2.33-6.86-2.41-7.99-.3-16-.04-23.99-.16-3.1-.04-6.03.82-6.2 3.93-.15 2.69-2.62 6.68 2.57 8.28 1.66.51 2.72 2.85 4.17 4.22q5.37 5.03 10.84 9.94c.7.64 1.52 1.48 2.37 1.6 4.62.58 6.3 3.7 7.95 7.62 1.43 3.4 4.26 6.21 7.02 10.05l7.5 11.55 1.07-.7c1.08 2.78-1.91 7.59 3.92 7.86 1.23 2.87-1.88 7.75 3.99 8 1.27 2.84-1.9 7.75 4.27 8-1.37 10.07 8 13.34 13.08 18.3 5.44 5.31 13.03 10.44 22.15 9.43l-.4 1.33c2.13.87 4.25 2.5 6.39 2.51 19.15.2 38.31.12 57.47.12H703v25.65c0 11.5-.04 23 .02 34.49.03 4.58-3.92 5.68-6.62 7.82a16 16 0 0 1-4.64 2.63c-2.53.87-5.2 1.34-7.91 2.01-2.08-7.84-8.12-3.1-12.42-5.13-.12-5.27-4.56-2.99-7.22-4.6-1.96-.95-3.84-2.39-5.9-2.75-2.65-.47-4.72-.52-7.17-2.77-3.07-2.83-8.04-3.5-12.05-5.4-3.8-1.8-7.26-4.38-11.15-5.91-4.25-1.69-6.01-8.25-10.71-6.4-2.8-1.59-4.63-2.55-6.37-3.66-2.65-1.68-5.54-3.15-7.77-5.28-3.3-3.16-5.26-8.26-10.84-6.73-2.46-2.8-4.34-5.82-7-7.78-4.23-3.12-9.35-5.08-13.4-8.38-3.52-2.86-5.9-7.07-9.14-10.33-3.37-3.4-7.34-6.2-10.74-9.57-3.25-3.23-6.1-6.86-9.1-10.33-2.39-2.75-5.88-5.17-6.85-8.35-1.82-6.02-7.97-7.94-10.56-12.98-.23-.44-1.46-.37-2.52-.6 1.47-6.59-3.33-9.14-7.85-12.49 1.2-6.11-3.39-9-7.99-11.89-.58-3.04 1.67-7.5-4.65-7.7 3.26-6.05-3.05-7.5-4.68-11.24-2.46-5.62-7.11-10.28-6.92-17.1.04-1.32-1.78-2.7-3.17-3.79-1.55-2.67 1.56-7.77-3.23-7.83-1.75-3.78-4.12-6.69-4.28-9.71-.4-7.5-6.6-13.37-5.32-21.27.27-1.67-1.38-3.66-2.98-5.24-.82-4.95-.72-9.85-4.11-14.65-1.84-2.6-.4-7.39-.84-11.14-.25-2.12-1.35-4.12-2-6.2-.68-2.11-1.78-4.24-1.83-6.38-.21-9-.1-18-.15-27.45-1.16-.89-2.28-1.32-3.97-1.97l.01 8.5c.01 8.9.01 16.9.03 24.9 0 1.16-.39 2.94.2 3.38 6.18 4.67 2.99 11.29 3.83 17.05.22 1.53.83 3.01 1.35 4.49.83 2.33 2 4.58 2.56 6.97 1.56 6.6 2.88 13.25 4.34 19.87.1.41.83.66 1 1.08 2.26 5.78 4.45 11.6 6.73 17.37.8 2 1.8 3.93 3.32 7.2a132 132 0 0 0 20.16 38.82c.82 2.74-1.07 6.87 3.87 7.08 1.94 7.54 6.87 12.33 12.5 16.81.13 1.71-.36 4.12.6 5.56 1.41 2.13 3.88 3.55 5.86 5.32 1.91 1.7 4.78 3.16 5.44 5.29 1.46 4.68 3.4 8.48 7.77 11.06 1.79 1.05 2.99 3.11 4.43 4.73 3.2 3.59 6.24 7.34 9.64 10.72 3.25 3.24 6.95 6.02 10.33 9.13 3.87 3.55 7.09 9.15 11.55 10.4 5.94 1.66 7.96 6.81 12.21 9.74 3.58 2.45 6.2 6.25 10.97 6.99.48.07.94.63 1.3 1.06 3.07 3.63 6.43 6.78 11.56 7.16 1.25 3.52 1.25 3.52 6.83 3.88 2.03 1.69 3.2 3 4.66 3.81 2.72 1.54 7.33 2.2 8.05 4.29 1.72 4.97 5.27 3.36 8.16 4.51a19 19 0 0 0 5.7 3.21c1.16.46 2.5.52 3.58 1.1 5.94 3.24 11.24 8.12 18.85 6.87 1.94 7.5 8.08 2.4 11.7 4.87 1.81 1.37 3.7 2.5 5.75 3.14 6.63 2.1 12.13-1.88 17.4-4.5 2.05-1.03 5.95-3.33 5.9-7.88-.27-22.15-.18-44.31-.22-66.47-2.38-.38-4.75-.76-8.01-1.13-18.38.01-35.88.16-53.38-.06-5.75-.08-10.23-5.65-16.5-4.5-.24.05-.55-1.19-1.04-1.5-3.91-2.52-7.87-4.96-11.82-7.43l-.39.78-11.66-12.82c-1.74-1.99.98-6.68-4.88-6.74-.78-3.28 1.74-7.86-3.99-8.03-.84-3.2 1.78-7.84-4-8-.85-3.19 1.78-7.83-4.58-8 2.61-6.02-2.87-7.99-5.2-11.51-1.99-3-4.28-5.79-6.44-8.66-1.84-2.45-3.56-6.85-5.55-6.98-7.18-.44-9.34-9.07-16.43-9.15-.67 0-1.77-2.03-1.9-3.2-.29-2.65-.1-5.36-.1-8.03h23.73c.21 6.16 5.2 2.86 7.69 4.4 4.47 5.34 8.98 10.63 15.8 11.9 2.43 7.23 6.85 12.39 12.6 16.58.16 1.88-.4 4.5.65 5.71 2.95 3.4 6.57 6.2 9.9 9.26 1.9 1.74 3.87 3.41 5.57 5.33 3.08 3.47 5.34 8.18 11.98 6.41-.7 4.31 1.93 4.24 4.84 4.37 1.6.07 3.15 1.25 4.74 1.89 1.73.7 3.47 1.88 5.22 1.91 10.66.18 21.33.23 32-.03 2.13-.05 4.24-1.58 6.36-2.43l-.34-1.33c8.25-.28 8.56.09 14.24-4.64 2.65-2.2 6.16-4.76 5.16-9.7-.52-2.55.24-5.53 1.05-8.11.96-3.1 2.6-6 3.81-8.7 1.05-1.5 2.05-2.83 2.97-4.21 1.94-2.91 3.96-5.77 5.7-8.8 1.01-1.76 1.98-3.78 2.06-5.72.02-.69-2.54-1.74-4.06-2.18-1.97-.58-4.14-.5-6.1-1.1-2.57-.79-4.95-2.55-7.53-2.83-4.44-.47-8.96-.13-12.77-.13-4.6-7.22-11.52-2.17-16.78-4.52-1.95-6.88-8.09-1.8-12.2-4.04-.16-5.4-4.76-2.86-7.98-3.65-.2-5.7-4.75-3.25-7.98-3.97-.21-5.7-4.74-3.3-7.28-4.48-15.24-7.44-24.14-21.99-37.05-32.51 1.12-6.05-3.48-8.74-7.91-11.57-.61-3 1.65-7.47-3.47-7.67-.69-2.7-1.19-5.04-1.89-7.32-.82-2.7-1.84-5.35-2.74-8.03-.46-1.33-.84-2.69-1.28-4.03-.9-2.68-2.04-5.3-2.66-8.05-.54-2.35.42-5.71-.9-7.09-3.31-3.47-3.2-7.34-3.19-11.46.03-5.5-.05-11-.09-16.5a39 39 0 0 0-3.58-1.08c-.35.01-.31-.03-.29-.05 0 2.39-.02 4.8-.1 7.65.08-2.84.1-5.25-.23-7.63.26 0 .27.04.27.04l.06-8.14c.03-7.2.08-13.51.12-19.82.46-3.13-2.27-7.37 3.46-9.45.4-1.49.58-2.37.37-3.14-2.38-8.87 3.55-16.18 4.8-24.39.53-3.37 3.84-6.53 3.5-10.65 5.34-.66 3.2-5.06 3.77-7.56 1.51-.97 3.62-1.65 3.7-2.5.73-8.63 8.71-12.08 13.05-18.04 3.8-5.24 4.65-6.55-.25-9.08-2.56-5.41 3.45-12.57-4.44-16.21v-33.47c1.66-1.92 3.92-3.43 3.72-4.47-1.63-8.47 2.62-15.77 4.3-23.55.15-.73 1.8-1.13 2.77-1.68l1.85-3.9c-.67 1.4-1.26 2.65-1.39 3.94a75 75 0 0 0 9.57-.38c-.68-2.65-1.98-3.42-3.48-3.59 1.58.17 3.02.93 3.93 3.64 5.14.4 9.62.39 14.03.39 2.12 7.43 8.29 2.24 11.81 4.72 1.3 1.3 2.7 2.53 4.31 3.24 4.42 1.94 8.95 3.63 13.41 5.48 2.3.95 6.2 1.64 6.53 3.1 1.2 5.32 5.19 2.74 8.1 3.7.37 5.43 4.74 3.34 6.96 3.72 3.61 3.03 4.7 8.4 9.75 7.89 4.28-.44 10.16 3.33 12.46-3.84 3.73 0 7.4.15 11.05-.07 1.7-.1 3.4-.82 5.02-1.44 1.91-.72 3.72-2.3 5.61-2.38 8.15-.3 16.32-.18 24.48-.22a39 39 0 0 0 1.08-3.58c-.01-.35.03-.31.05-.29-2.39 0-4.8-.02-7.65-.1m7.6.4c-.35 1.42-.71 2.5-.64 3.61 3.42-.8 8.33 2.58 8.3-3.85-2.85-.08-5.26-.1-7.66.23m-183.66 171.7c1.43.36 2.5.72 3.62.65-.8-3.42 2.58-8.33-3.85-8.3-.08 2.85-.1 5.26.23 7.66M458.97 466.6l3.92 1.51c.04-3.06.4-6.18-.03-9.18-.2-1.42-1.9-2.63-3.38-3.54-.46 2.7-.45 4.98-.45 8.01-1.68-.65-2.8-1.08-3.96-1.05-.05 3.28-.5 6.2.1 8.87.34 1.49 2.4 2.59 3.75 3.42.05-2.72.05-5 .05-8.04m.06-3.2c0-3.03 0-5.32.05-8.04.02-5.42-.03-10.39 0-15.82.01-2.59-.03-4.84-.08-7.34.06 2.5.14 4.71.54 6.85 6.06-1.56 2.5-6.08 3.04-9-1.4.41-2.5.66-3.58 1.35 0-.33.04-.36.04-.36-1.1.25-2.2.5-3.67 1.36-.33 10.25-.3 19.87-.26 29.49zm493.4-208.44.07.02zm10.04 84c-3.84.14-3.92 2.78-3.29 4.87.4 1.33 2.4 2.19 3.74 2.8.02-2.87-.02-5.3-.45-7.68m-379.92 75.12c-5.68 1.63-2.95 5.87-3.01 8.97 6.06-1.56 2.5-6.07 3-8.97m120.64 264.87c-2.85-.02-4.4.9-3.85 3.97 2.8.43 5.17.81 7.59.78.32-3.2-.6-4.74-3.74-4.75"/></svg>