<svg viewBox="0 0 1600 900" xml:space="preserve" xmlns="http://www.w3.org/2000/svg"><path d="M1600.54 317c-314.122 0-627.783 0-941.444.006-1.998 0-3.996.079-5.994.12-.022 2.298-.044 4.592.416 7.372 316.148.49 631.815.497 947.482.059 0-2.814 0-5.186-.46-7.557m-1003.645.041c0 9.699 0 18.769.455 27.877 2.888.013 5.32-.012 7.754-.039v-19.4h19.863c0 6.272-.001 12.375.418 18.978 2.853.473 5.287.448 7.685-.037-.045-5.407.106-10.362-.12-15.299-.155-3.328 1.188-4.269 4.327-4.174 5.27.16 10.55-.03 15.791-.504-.01-2.725.012-5.02-.44-7.359-18.653-.043-36.832-.043-55.733-.043m36.21 27.838c-2.433.026-4.867.052-7.755.039-6.746-.005-13.037.03-19.787.012-2.893-.025-5.326.002-8.674.04-20.538.06-40.162.109-59.787.157a670 670 0 0 1-.184 7.533c-.04 8.202-.039 15.962-.039 24.322-6.395 0-12.626 0-19.316-.052-2.862-.011-5.266.029-8.116.07-.448 0-.449-.004-.449-.004-.014 2.403-.027 4.806-.08 7.658-.04 6.881-.039 13.313-.039 20.328-7.741 0-15.3 0-23.316-.052-2.862-.011-5.266.029-8.116.07-.448 0-.449-.004-.449-.004-.014 2.403-.027 4.806-.08 7.658-.005 8.074.03 15.7.012 23.783 0 2.825.052 5.191.582 8.051 2.732.494 4.987.494 7.717.494v-32.117h31.808v-27.992h27.861a670 670 0 0 1 .184-7.533c.04-8.202.039-15.962.039-24.322 6.395 0 12.627 0 19.317.052 2.893.025 5.325-.002 8.673-.04 29.872-.062 58.832-.11 87.823-.587.01-2.725-.012-5.02-.493-7.37-9.418-.102-18.377-.148-27.336-.194m967.438.12c-311.188 0-621.919.002-932.649.007-2.33 0-4.662.079-6.994.12.021 2.297.043 4.593.496 7.362 2.764.487 5.098.51 7.43.51 310.724.002 621.45.002 932.174-.443 0-2.815 0-5.185-.457-7.555m-1091.547.04c0 11.142.001 21.55.451 31.958 2.852-.04 5.253-.08 7.656-.12v-23.845c6.41 0 12.633 0 19.354-.408.547-2.771.596-5.135.17-7.541-9.357-.043-18.241-.043-27.631-.043m63.654 8.04c-2.888-.012-5.32.013-7.754.04v23.846c-6.41 0-12.632-.001-19.353.408-.547 2.77-.597 5.135-.172 7.54 9.344.044 18.214.044 27.734.044 0-11.077 0-21.457-.455-31.877m-95.654 23.916c0 9.86.001 18.93.451 28 2.852-.04 5.253-.08 7.656-.12v-19.845c7.745 0 15.3 0 23.354-.414.512-2.817.526-5.22.072-7.621zm-28 28c0 11.209 0 21.604.438 32 2.755.057 5.074.113 7.392.168l.252-.246c.084-7.705.084-15.33.084-23.887 6.356 0 12.577.001 19.297-.414.512-2.816.525-5.22.07-7.621zm27.883 31.898c-6.268.018-12.538.034-19.346.078-.538.027-.707.192-.65.627.117 2.792.177 5.15.697 7.47 6.813-.09 13.168-.145 19.488-.638-.085-2.806-.136-5.17-.19-7.537m-19.995.705c-2.375-.49-4.694-.546-7.448-.601-.435 0-.437-.004-.437-.004-.014 2.403-.027 4.806-.08 7.658-.04 6.881-.04 13.313-.04 20.328-7.74 0-15.299 0-23.316-.052-2.825 0-5.19.052-8.05.597-.54 20.117-.586 39.743-.633 59.367a473 473 0 0 1 .039 7.756c-.005 6.746.03 13.037.012 19.787-.011 2.862.029 5.264.07 8.114 0 .449-.003.452.437.45 2.77-.033 5.104-.067 7.49-.56.102-20.085.147-39.71.194-59.336a473 473 0 0 1-.039-7.756c.04-6.886.039-13.317.039-20.332 7.741 0 15.3.001 23.316.053 2.825 0 5.191-.052 8.051-.597.54-9.45.587-18.41.633-27.368-.06-2.357-.12-4.712-.238-7.504m-39.756-.603c0 9.924 0 19.014.44 28.07 2.805-.085 5.17-.137 7.536-.19v-19.845c7.745 0 15.3 0 23.354-.414.512-2.817.526-5.22.072-7.621zm39.306 35.933c-2.806.085-5.17.138-7.537.19v19.846c-7.745 0-15.3-.001-23.353.418-.473 2.853-.448 5.287.037 7.685a9119 9119 0 0 1 31.293-.037c0-9.98 0-19.058-.44-28.102M416.42 524.93c-9.33.036-18.2.038-27.293.038 0 19.354 0 37.744.43 56.101 2.724-.01 5.02.012 7.359-.44.042-6.687.04-12.902.04-19.624 7.219 0 13.63-.001 20.042-.451-.04-2.852-.08-5.254-.12-7.657h-19.4v-19.863c6.273 0 12.376.001 18.979-.418.473-2.853.448-5.287-.037-7.685m8.453 35.97c-2.333.033-4.666.069-7.436.569a43575 43575 0 0 0 .006 339.53c2.815 0 5.187 0 7.557-.467 0-111.026 0-221.584-.006-332.144 0-2.496-.079-4.993-.12-7.489m-28 20.202c-2.298-.022-4.592-.045-7.372.425A36695 36695 0 0 0 389.443 901c2.815 0 5.187 0 7.557-.469 0-104.79.001-209.114-.006-313.437 0-1.997-.079-3.994-.12-5.992" fill="#919191"/></svg>