<svg xmlns="http://www.w3.org/2000/svg" viewBox="0 0 1600 900" xml:space="preserve"><path fill="#F0F0F0" d="M458.86 422.916c.047-9.663-.056-19.33.259-28.983.067-2.078 1.656-4.101 2.519-6.16.48-1.149 1.212-2.296 1.3-3.483.197-2.651.058-5.328.063-7.994.005-2.826-.672-6.094 3.231-5.53 2.776-5.622-2.822-12.69 4.497-16.694 1.878-3.658-3.125-9.768 3.78-11.582 2.112-4.068-2.925-10.195 4.38-12.096-.716-7.98 4.049-13.68 7.174-20.032 1.924-2.432-1.363-7.402 4.582-7.613 1.357-2.797-1.973-7.786 3.957-7.984 1.525-2.732-2.171-7.905 4.43-7.912-1.294-6.766 3.202-9.727 7.848-12.553.697-2.833-1.42-6.324 3.614-7.998 2.21-.735 2.86-5.728 4.567-8.58.934-1.56 2.6-2.68 3.925-4.011 3.83-3.85 5.108-9.366 8.483-13.396 2.954-3.527 6.875-6.243 10.35-9.339 1.733-1.545 3.498-3.066 5.12-4.724 5.077-5.19 10.135-10.399 15.119-15.677 4.56-4.83 8.867-9.905 13.557-14.601 4.144-4.15 8.654-7.936 13.033-11.848.459-.41 1.241-.953 1.679-.815 4.468 1.403 7.502-3.755 7.833-4.799 1.583-4.976 5.19-3.04 8-3.593 3.132-4.03 5.434-9.206 11.953-7.866 2.082-4.697 14.25-11.984 20.435-12.158.203-5.657 4.647-3.406 7.477-4.495 6.271-3.765 12.34-8.028 19.955-8.766 1.96-.878 4.272-1.354 5.813-2.709 4.833-4.25 12.11-2.11 16.728-6.69.316-.315.89-.6 1.303-.552 7.381.878 12.833-6.377 20.463-4.767 2.257.477 4.825.698 6.213-2.474.412-.943 2.863-1.303 4.407-1.38 3.823-.19 7.663-.025 11.495-.074 3.13-.04 6.461.883 8.6-2.875.528-.93 2.97-1.066 4.534-1.07 29.662-.059 59.324-.09 88.985.069 1.895.01 3.762 1.67 5.677 2.48 1.287.545 2.624 1.297 3.96 1.344 4.66.165 9.352-.198 13.986.185 2.022.167 3.935 1.654 5.76 2.967 4.911 2.9 11.95-2.58 16.23 4.912 2.042 0 4.576-.282 7.008.096 1.704.266 3.298 1.375 4.876 2.228.538.291 1.03 1.445 1.287 1.367 6.751-2.052 11.21 4.9 17.635 4.456 1.607-.111 3.34 1.59 5.172 2.497 3.005 1.664 5.908 3.558 9.04 4.933 3.912 1.717 8.154 2.713 11.993 4.563 3.916 1.887 7.506 4.447 11.26 6.674.804.477 1.718.764 2.555 1.19 1.658.846 3.298 1.727 6.135 3.219 3 1.764 6.9 4.06 10.802 6.353 1.383.812 2.848 1.509 4.137 2.449 2.709 1.975 5.34 4.06 7.97 6.14.622.49 1.116 1.64 1.668 1.64 5.107 0 6.868 3.984 9.49 7.26 1.645 2.057 4.177 4.209 6.622 4.669 6.87 1.292 9.035 7.453 13.289 11.438 3.356 3.143 7.14 5.84 10.397 9.076 3.398 3.377 6.228 7.324 9.609 10.721 3.227 3.242 7.062 5.889 10.216 9.192 2.29 2.397 3.855 5.475 5.833 8.184 2.243 3.07 4.117 6.228 7.173 8.91 3.727 3.272 5.242 8.99 8.83 12.512 4.542 4.457 4.668 11.796 10.867 15.12 1.246.67.965 4.188 1.78 6.155 6.354 10.183 12.355 20.582 16.266 32.682 5.01.167 2.224 4.887 3.148 7.729 7.228 2.047 2.055 8.215 4.824 11.733 2.879 7.778 8.082 14.786 6.95 23.835 8.035 3.704 2.002 10.875 5.508 15.645.842 2.291 2.176 4.532 2.416 6.885.403 3.958.032 7.99.152 11.985.043 1.408.102 3.294.962 4.117 3.913 3.747 2.982 8.436 2.986 12.952.02 26.495.063 52.991-.086 79.486-.013 2.213-1.472 4.395-2.105 6.635-.693 2.451-1.501 4.927-1.726 7.44-.297 3.306.205 6.69-.17 9.98-.255 2.259-1.364 4.435-2.2 6.605-.343.89-1.545 1.805-1.386 2.48 2.08 8.834-5.795 15.83-4.466 24.58.231 1.525-1.492 3.347-2.885 4.798-2.644 3.524 2.13 9.552-4.515 11.907-1.68 6.138-3.314 12.409-5.21 18.6-.202.664-1.923.864-2.944 1.276-1.28 2.686 2.001 7.655-3.935 7.857-1.359 2.808 1.953 7.785-4.01 7.997-1.342 2.804 1.954 7.786-4.416 8.01 1.91 6.885-3.973 8.713-7.56 13.392 1.623 5.29-5.503 7.29-7.066 11.988-1.71 5.14-4.761 8.51-9.363 11.158 1.435 5.777-2.765 8.357-6.573 11.236-1.85 1.398-3.957 2.73-5.21 4.588-3.024 4.483-5.475 9.35-8.441 13.875-1.275 1.945-3.242 3.44-4.912 5.123-3.735 3.761-7.044 8.177-11.38 11.026-2.738 1.798-3.631 6.004-8.443 5.754-2.233-.117-4.445 4.04-7.062 5.592-4.768 2.827-6.422 9.163-12.922 10.328-2.699.484-4.61 4.434-7.293 6.169-3.392 2.194-5.193 7.746-10.452 5.343-3.678 3.923-5.69 9.542-10.542 8.491-14.343 8.006-27.41 15.23-41.074 20.562-2.332 1.163-4.33 2.074-6.24 3.143-1.269.71-2.335 1.797-3.629 2.44a18.8 18.8 0 0 1-4.374 1.505c-2.946.633-7.065-1.838-8.295 3.311-.094.392-1.435.676-2.2.687-4.666.062-9.413.537-13.964-.185-2.26-.359-4.398-2.749-6.173-4.617-3.322-3.496-5.034-7.275-4.975-12.694.398-36.49.207-72.985.207-109.463-7.992-3.693-1.982-10.861-4.629-16.458-5.012-.287-2.99-4.796-3.482-8.235-5.889-.213-3.233-4.867-4.055-7.75-4.543-1.622-8.343-6.115-7.758-9.492.189-1.091 1.054-2.681 1.935-2.941 8.508-2.512 16.91-5.628 26.127-4.283 1.542.225 3.328-1.653 5.084-2.352 1.619-.644 3.325-1.3 5.033-1.433 2.975-.23 5.982-.064 8.924-.064 1.623-3.786 1.623-3.786 12.38-4.12.17-5.679 4.637-3.372 7.176-4.944l25.854-12.861 26.642-26.584-.677-.323 8.249-12.512c1.672-2.328-.546-6.772 5.069-7.074.554-3.264-1.596-7.657 3.59-7.949 2.182-4.116-2.879-10.245 4.538-12.31 0-2.956-.042-5.946.022-8.934.024-1.129-.131-2.765.515-3.298 5.555-4.582 2.906-10.79 3.442-16.337.374-3.875-1.281-8.295 3.464-10.885.598-.326.532-2.128.535-3.247.036-11.165.024-22.33.017-33.494 0-.83.268-2.085-.16-2.427-6.986-5.575-2.366-13.404-4.181-20.156-7.125-1.843-2-7.992-4.206-12.144-5.161-.25-3.005-4.649-3.589-7.957-5.576-.268-3.39-4.69-4.03-8.07-5.738-.088-3.247-4.662-4.556-7.081-3.761-4.141-7.522-8.283-11.29-13.267-.046-3.265-.085-5.688-.123-8.11.046-3.16-.21-6.364.25-9.462.291-1.97 1.694-3.763 2.505-5.675.546-1.285 1.312-2.636 1.325-3.964.105-11.151.12-22.305-.032-33.456-.015-1.14-1.333-2.246-1.992-3.399-.674-1.177-1.724-2.356-1.828-3.6-.264-3.14.078-6.331-.183-9.472-.085-1.02-1.406-1.886-1.947-2.933-.757-1.467-1.25-3.07-1.979-4.553-.58-1.184-1.346-2.277-2.641-3.804-1.782-5.377-5.688-3.11-8.598-3.608l-1.851 3.902h-14.053c-1.943 7.359-7.953 2.612-11.505 5.577-2.284.844-4.512 2.07-6.87 2.424-2.414.362-4.122.676-6.18 2.687-2.694 2.635-7.446 3.088-10.38 5.578-2.812 2.386-4.976 4.982-7.55 4.1-2.9 1.676-4.699 2.693-6.475 3.748-2.61 1.549-6.795 2.636-7.459 4.796-1.232 4.009-3.658 3.046-6.09 3.178-1.823.1-3.74.36-5.463-.068-2.05-.509-3.936-1.676-5.892-2.558l.358-1.354c-3.482 0-6.966-.085-10.445.025-3.195.1-6.142.076-8.426-2.864-.688-.885-2.619-1.093-3.987-1.112-7.48-.105-14.963-.055-23.07-.421-.87-1.466-1.115-2.568-1.381-3.649-.021.021-.063.062.388.045 2.86-.066 5.267-.115 8.135-.1 6.622.069 12.788-.02 18.947.136 1.71.043 4.421.316 4.912 1.333 1.59 3.3 4.213 2.55 6.724 2.596 2.665.05 5.388-.32 7.98.117 2.05.346 3.94 1.638 5.9 2.51l-.356 1.256h6.131c3.909-4.075 6.11-9.397 12.876-7.791.294-6.116 5.007-3.338 7.66-4.69 6.822-6.513 14.384-11.547 24.096-12.232 1.282-1.35 2.78-2.318 4.352-3.142a75 75 0 0 1 5.553-2.637c1.316-.559 2.685-1.172 4.081-1.336 6.177-.727 12.01.267 18.417-3.406 8.716-4.998 15.782.646 16.33 9.692 1.685 2.045 3.583 3.289 3.705 4.687.45 5.15-.96 10.647 3.966 14.64.512.415.176 1.915.177 2.912.007 14.164.103 28.33-.107 42.49-.03 1.979-1.572 3.935-2.414 5.902l-1.474-.364c0 3.322-.657 6.822.178 9.92.903 3.348 2.613 6.91 5.029 9.317 3.416 3.406 8.179 5.604 6.693 11.849 6.16.207 3.36 4.937 4.432 8.174 6.312-.274 2.63 4.894 4.568 7.401 1.477 1.789 2.374 3.731 3.076 5.741.733 2.096 1.241 4.269 1.915 6.386.659 2.072 1.742 4.07 2.036 6.183.56 4.031-.642 8.998 1.317 11.98 2.865 4.363 2.729 8.56 2.746 13.075.034 9.331-.013 18.663.02 27.994.015 4.078.572 8.156-2.93 11.474-.954.905-.987 3.022-1.035 4.595-.13 4.328.02 8.665-.086 12.995-.03 1.229-.15 2.902-.924 3.59-3.296 2.927-3 6.668-3.1 10.474-.053 2.022-.632 4.069-1.225 6.028-.773 2.553-1.716 5.062-2.735 7.529-.831 2.011-1.882 3.933-2.835 5.894-1.669 2.644.713 7.17-4.954 7.223-.675 3.425 1.607 7.889-4.544 8.025 2.168 6.522-3.19 8.361-6.365 11.608-1.988 2.033-3.524 4.501-5.468 6.582a191 191 0 0 1-9.146 9.165c-2.08 1.943-4.741 3.331-6.572 5.459-3.19 3.706-5.707 8.17-11.597 6.746-1.465 3.496-17.256 12.09-23.907 12.188-2.028 7.219-8.179 2.113-11.796 4.745-1.822 1.39-3.71 2.623-5.747 2.968-2.91.493-7.499-.832-8.614.669-3.594 4.838-8.207 2.996-12.504 3.408-2.615.25-5.42-.199-7.83.6-3.54 1.174-6.804 3.182-10.012 4.75l5.66 10.411c4.305.168 1.51 4.895 3.14 7.563 1.494 1.613 2.654 3.343 3.036 5.23.608 3.006-.386 6.983 1.23 9.001 3.332 4.16 2.819 8.531 2.84 13.046.036 7.832.01 15.664.01 23.496v84.65c6.08 4.935 10.786 11.797 19.352 8.263 6.355-2.96 12.023-7.805 19.72-7.794 1.949-1.5 4.067-2.356 6.192-3.195 1.16-.459 2.399-.765 3.483-1.358 3.956-2.163 7.767-4.615 11.817-6.579 3.545-1.719 9.44-2.002 10.57-4.562 2.136-4.847 5.606-2.833 8.587-3.734.239-5.999 5.14-2.843 7.239-3.765 3.682-4.328 5.961-9.54 11.004-8.325 5.153-4.346 8.94-9.046 13.846-11.198 3.846-1.687 5.912-4.264 8.389-6.971 1.7-1.86 3.533-5 5.372-5.047 4.045-.105 6.044-2.568 8.535-4.764 3.255-2.87 6.795-5.456 9.783-8.575 3.295-3.438 5.405-8.605 9.286-10.75 5.976-3.304 5.615-10.616 10.809-13.973 1.46-.943 2.765-2.186 3.967-3.456 2.578-2.722 5.043-5.55 8.027-8.861.044-4.499 3.06-8.95 5.59-9.808l9.558-13.843c1.205-2.392-.704-6.516 2.998-6.687l8.63-13.031 1.085.715c.792-2.932-1.848-7.577 3.951-7.734.814-3.198-1.761-7.813 4.056-8.01.635-4.34-1.4-9.295 3.81-11.992.479-.248.047-1.946.384-2.84.758-2.009 1.734-3.936 2.621-5.896 1.41-3.174 2.173-6.576 3.172-9.907.503-1.679 1.636-3.17 2.13-4.85 1.74-5.916 3.322-11.88 4.984-17.819.128-.456.423-.865.63-1.3.81-1.712 2.002-3.356 2.325-5.156.406-2.26-.227-4.709.194-6.963.383-2.048 1.577-3.945 2.413-5.908l1.491.352c0-5.653-.135-11.311.078-16.956.068-1.818.96-3.637 1.647-5.388.64-1.63 2.168-3.166 2.177-4.75.137-26.827.1-53.656.09-80.484 0-1.162.354-2.969-.232-3.385-6.06-4.305-3.012-10.607-3.783-16.054-.243-1.71-.202-4.03-1.262-4.941-2.651-2.28-2.903-4.933-2.741-8.007.198-3.77.665-7.625-3.137-10.311-.678-.48-.767-2.054-.801-3.133-.1-3.149-.036-6.303-.036-9.383-7.37-2.135-2.291-8.27-4.46-12.158-3.107-1.133-3.107-1.133-3.772-12.144-5.765-.212-3.111-4.868-4.36-7.555-1.408-1.264-2.664-2.642-3.358-4.262-1.839-4.294-3.38-8.715-5.148-13.04-1.003-2.453-1.82-6.534-3.416-6.908-5.344-1.252-2.74-5.212-3.734-8.138-5.478-.32-3.291-4.738-4.393-7.438-2.782-3.206-5.094-6.715-7.34-10.266-.524-.826-.664-1.918-1.256-2.672-2.187-2.786-6.119-5.343-6.364-8.242-.363-4.299-4.302-4.627-5.69-7.657-1.888-4.119-5.463-7.464-8.314-11.141l.97-.713-44.885-44.192c-3.975-.246-13.399-7.312-14.312-9.965l-25.564-17.05.3-.161-8.2-3.494.566-1.327c-2.848-.591-7.057 1.64-7.674-3.703-.023-.196-1.225-.144-1.783-.408-4.096-1.938-8.161-3.941-12.25-5.894-1.542-.737-3.122-1.395-4.685-2.088l-5.873-2.6.382-1.287c-3.028-.597-7.49 1.685-7.758-3.571-4.078-2.229-10.222 2.875-12.176-4.105-2.98-.435-6.844.153-8.51-1.49-3.104-3.058-6.384-2.718-9.96-3.06-2.028-.195-3.948-1.534-5.916-2.357l.367-1.53c-3.652 0-7.312-.144-10.955.044-3.117.16-5.732-.213-7.973-2.823-.834-.97-2.926-.974-4.476-1.198-5.6-.808-12.087 2.367-16.535-3.808-.365-.506-1.908-.208-2.903-.209-27.662-.008-55.323-.015-82.984.023-1.257.002-3.28.037-3.642.734-2.082 4.007-5.657 3.195-8.992 3.227-4.151.04-8.303.01-11.63.01-4.679 7.488-11.73 1.944-16.566 5.022-1.643 1.333-3.404 2.54-5.322 2.891-3.183.584-7.677-.592-9.431 1.161-2.79 2.79-5.485 2.865-8.686 2.95-1.12.029-2.36.07-3.326.549-2.935 1.454-5.763 3.124-8.633 4.71-1.723.596-3.542 2.835-4.61 2.52-6.064-1.785-9.097 4.678-14.605 4.844-3.056.092-6.026 3.04-9.035 4.7-1.825.896-3.517 1.743-5.17 2.661-3.675 2.04-7.374 4.042-10.982 6.196-3.854 2.3-7.614 4.758-11.415 7.147l-.848-1.27c-2.83 4.707-5.833 9.152-11.674 8.072-3.556 4.02-6.455 7.914-10.028 11.037-1.439 1.258-4.352.83-6.05 1.087-21.068 23.682-46.574 42.678-64.635 70.472.839 4.451-3.683 7.197-8.182 9.957l1.24.765-12.367 19.739c-1.463 2.518.694 6.93-4.854 7.2-.648 3.288 1.6 7.737-4.03 7.988-.552 3.325 1.552 7.716-2.673 7.942-1.677 3.591-3.106 6.35-4.252 9.221-.645 1.616-.695 3.46-1.242 5.126-.71 2.162-1.648 4.25-2.488 6.37-3.082 3.53 1.901 9.634-5.186 11.509-.291 3.596.666 8.023-1.12 10.23-3.114 3.847-3.095 7.71-3.235 11.97-.055 1.69-.711 3.38-1.228 5.029-.846 2.698-2.35 5.313-2.593 8.05-.456 5.131.78 10.453-3.199 14.924-.902 1.014-.864 3.057-.883 4.63-.11 9.163-.108 18.327-.457 27.656-1.416.412-2.518.658-3.6.924.021.021.062.063.045-.388-.066-2.86-.115-5.267-.164-7.675"/><path fill="#F0F0F0" d="M706.892 684.111c.036 22.157-.054 44.315.212 66.47.055 4.552-3.847 6.853-5.9 7.875-5.263 2.622-10.764 6.599-17.391 4.504-2.045-.647-3.938-1.772-5.75-3.142-3.622-2.466-9.767 2.64-11.708-4.868-7.604 1.254-12.903-3.63-18.843-6.864-1.077-.586-2.425-.65-3.589-1.105-1.99-.78-3.935-1.679-5.692-3.21-2.893-1.154-6.444.46-8.157-4.514-.72-2.091-5.337-2.747-8.054-4.282-1.452-.82-2.63-2.125-4.663-3.819-5.579-.352-5.579-.352-6.83-3.874-5.13-.383-8.49-3.53-11.561-7.165-.36-.426-.818-.986-1.295-1.06-4.767-.738-7.395-4.534-10.968-6.99-4.258-2.925-6.277-8.073-12.211-9.737-4.467-1.252-7.678-6.848-11.55-10.4-3.385-3.107-7.078-5.892-10.33-9.127-3.402-3.383-6.435-7.137-9.638-10.72-1.448-1.62-2.645-3.683-4.432-4.738-4.369-2.58-6.315-6.379-7.77-11.057-.66-2.124-3.528-3.581-5.44-5.29-1.978-1.77-4.451-3.185-5.866-5.315-.96-1.443-.465-3.852-.6-5.562-5.63-4.478-10.555-9.267-12.496-16.813-4.944-.213-3.048-4.336-3.87-7.082-9.122-12.212-15.967-25.56-20.157-38.824-1.519-3.265-2.53-5.186-3.324-7.193-2.283-5.773-4.466-11.585-6.732-17.365-.167-.426-.9-.669-.992-1.08-1.468-6.623-2.781-13.28-4.344-19.878-.566-2.39-1.73-4.635-2.558-6.968-.524-1.474-1.134-2.96-1.357-4.491-.84-5.76 2.354-12.378-3.827-17.042-.588-.443-.2-2.228-.203-3.39-.015-7.998-.013-15.995-.024-24.892-.007-3.184-.007-5.469-.007-8.508 1.69.655 2.804 1.087 3.968 1.979.051 9.455-.065 18.455.144 27.447.05 2.141 1.153 4.267 1.826 6.383.66 2.073 1.758 4.08 2.006 6.193.44 3.755-1.001 8.548.836 11.145 3.392 4.794 3.29 9.7 4.12 14.652 1.595 1.579 3.245 3.561 2.974 5.231-1.285 7.909 4.922 13.783 5.321 21.274.161 3.025 2.533 5.933 4.276 9.713 4.79.06 1.683 5.157 3.238 7.83 1.385 1.085 3.209 2.466 3.17 3.794-.198 6.81 4.455 11.475 6.916 17.097 1.632 3.729 7.937 5.19 4.682 11.239 6.314.202 4.066 4.66 4.65 7.698 4.6 2.884 9.182 5.781 7.983 11.895 4.529 3.348 9.323 5.899 7.855 12.484 1.06.232 2.29.16 2.518.602 2.592 5.038 8.74 6.96 10.563 12.978.964 3.183 4.463 5.605 6.84 8.35 3.009 3.473 5.862 7.104 9.112 10.336 3.394 3.375 7.369 6.169 10.742 9.563 3.238 3.258 5.612 7.476 9.13 10.332 4.058 3.295 9.172 5.264 13.404 8.383 2.659 1.96 4.54 4.974 7 7.777 5.585-1.532 7.531 3.57 10.84 6.728 2.235 2.134 5.121 3.602 7.769 5.285 1.743 1.108 3.58 2.068 6.371 3.664 4.7-1.856 6.462 4.707 10.714 6.389 3.885 1.537 7.347 4.113 11.145 5.916 4.008 1.902 8.985 2.57 12.05 5.393 2.447 2.254 4.52 2.309 7.167 2.774 2.065.363 3.942 1.797 5.902 2.755 2.66 1.61 7.108-.673 7.227 4.592 4.296 2.038 10.333-2.71 12.411 5.138 2.718-.67 5.384-1.147 7.916-2.016 1.656-.568 3.256-1.53 4.636-2.625 2.708-2.147 6.652-3.24 6.625-7.827-.066-11.495-.022-22.992-.022-34.487v-25.65h-5.366c-19.16 0-38.32.083-57.478-.115-2.135-.022-4.253-1.639-6.38-2.516l.395-1.33c-9.124 1.015-16.713-4.118-22.15-9.421-5.09-4.964-14.448-8.241-13.084-18.314-6.17-.242-2.998-5.155-4.267-8.002-5.865-.24-2.764-5.119-3.986-7.99-5.835-.271-2.842-5.081-3.924-7.868l-1.072.704-7.503-11.549c-2.759-3.837-5.58-6.649-7.013-10.046-1.655-3.926-3.328-7.041-7.955-7.63-.847-.107-1.662-.95-2.37-1.59-3.638-3.285-7.264-6.586-10.833-9.946-1.456-1.37-2.511-3.701-4.175-4.214-5.189-1.602-2.724-5.593-2.574-8.283.173-3.111 3.114-3.973 6.208-3.928 7.996.116 16-.146 23.987.155 2.314.087 4.576 1.567 6.862 2.409l-.52 1.72c6.264-2.445 7.852 4.367 12.18 5.828 2.292.774 4.98 1.54 6.485 3.213 2.307 2.567 3.698 5.944 5.572 8.918 1.246 1.978 2.31 4.286 4.062 5.684 3.838 3.062 8.27 5.509 7.156 10.223l21.634 22.002c1.917.373 6.389-1.899 6.479 2.016 3.919 2.18 6.75 3.833 9.664 5.326.82.421 1.88.52 2.831.523 10.153.035 20.306.022 30.48.022 1.994-7.48 8.145-2.328 12.064-4.44.691-1.019 1.273-2.932 2.44-3.406 4.582-1.862 6.809-4.842 6.183-9.87-.204-1.641-.345-3.406.044-4.976.543-2.194 1.611-4.258 2.455-6.377l.558.018 3.466-8.206.288-.113 5.428-9.938c-3.38-.71-6.86-1.297-10.253-2.201-2.23-.594-4.636-2.778-6.45-2.3-9.25 2.435-16.506-6.02-25.495-4.255-.368.073-1.156-.348-1.227-.658-1.171-5.151-5.308-2.675-8.25-3.309-1.5-.323-3.003-.824-4.374-1.506-1.293-.642-2.358-1.73-3.625-2.44-1.909-1.068-3.907-1.978-5.867-2.956-2.706-1.475-7.11.673-7.156-3.411-5.267-2.81-9.546-5.021-13.75-7.368-1.932-1.08-3.873-2.246-5.529-3.694-2.444-2.137-4.645-4.554-6.935-6.866-1.78-1.797-3.592-3.567-5.293-5.438-3.08-3.387-5.855-7.09-9.19-10.196-3.503-3.262-6.625-6.53-7.188-11.486l-1.263.482-3.33-8.27c-3.154-6.452-7.726-12.334-7.317-19.664-6.986-4.467-1.952-11.392-4.746-16.362-1.355-1.825-2.808-3.741-2.92-5.733-.353-6.31-.206-12.65-.195-19.425.08-2.858.101-5.268.103-7.657-.021.021-.062.063.293.046 1.43.351 2.504.719 3.578 1.087.036 5.497.119 10.995.093 16.493-.02 4.126-.128 7.996 3.189 11.466 1.314 1.375.356 4.737.892 7.089.626 2.744 1.764 5.37 2.66 8.054.446 1.337.826 2.696 1.28 4.031.908 2.68 1.92 5.326 2.748 8.028.698 2.275 1.197 4.61 1.886 7.32 5.118.194 2.861 4.668 3.47 7.663 4.426 2.838 9.028 5.523 7.914 11.572 12.909 10.526 21.804 25.072 37.046 32.513 2.539 1.18 7.068-1.213 7.284 4.475 3.23.724 7.785-1.733 7.978 3.975 3.22.788 7.817-1.754 7.978 3.652 4.11 2.24 10.248-2.845 12.203 4.037 5.252 2.353 12.183-2.7 16.778 4.52 3.806 0 8.332-.345 12.77.132 2.576.277 4.96 2.04 7.526 2.824 1.965.6 4.133.526 6.107 1.105 1.512.444 4.08 1.491 4.052 2.184-.079 1.939-1.043 3.957-2.055 5.717-1.738 3.024-3.76 5.885-5.697 8.794-.923 1.386-1.92 2.722-2.975 4.21-1.218 2.711-2.845 5.603-3.81 8.702-.805 2.587-1.567 5.564-1.053 8.107.999 4.947-2.507 7.504-5.16 9.71-5.678 4.723-5.988 4.35-14.24 4.636l.346 1.329c-2.123.85-4.229 2.384-6.37 2.435-10.66.252-21.33.205-31.994.026-1.75-.03-3.488-1.22-5.215-1.913-1.591-.639-3.139-1.82-4.744-1.891-2.908-.13-5.53-.056-4.838-4.367-6.642 1.772-8.898-2.938-11.982-6.412-1.7-1.915-3.675-3.59-5.566-5.33-3.332-3.062-6.958-5.863-9.903-9.257-1.052-1.212-.485-3.829-.65-5.716-5.747-4.189-10.173-9.349-12.594-16.568-6.827-1.279-11.332-6.57-15.806-11.906-2.494-1.542-7.48 1.763-7.692-4.4H551.03c0 2.672-.197 5.376.09 8.028.127 1.172 1.228 3.196 1.903 3.203 7.085.073 9.243 8.706 16.423 9.152 1.99.124 3.719 4.526 5.558 6.973 2.161 2.875 4.449 5.668 6.434 8.66 2.335 3.522 7.812 5.492 5.207 11.513 6.355.174 3.728 4.815 4.583 8.01 5.776.146 3.148 4.789 3.996 7.988 5.722.17 3.208 4.756 3.984 8.029 5.86.067 3.138 4.753 4.883 6.746l11.66 12.82.392-.782c3.945 2.466 7.906 4.908 11.816 7.428.488.314.803 1.546 1.042 1.502 6.264-1.155 10.751 4.422 16.5 4.496 17.495.225 34.996.076 53.376.065 3.259.372 5.637.75 8.014 1.13"/><path fill="#F0F0F0" d="M617.889 258.892c-.96.55-2.616.95-2.772 1.674-1.678 7.781-5.924 15.085-4.3 23.552.2 1.04-2.055 2.55-3.718 4.473v33.468c7.895 3.637 1.882 10.8 4.446 16.212 4.9 2.531 4.045 3.844.242 9.077-4.334 5.966-12.316 9.41-13.055 18.05-.072.846-2.178 1.519-3.689 2.497-.573 2.5 1.57 6.892-3.776 7.552.344 4.12-2.97 7.281-3.489 10.654-1.261 8.212-7.187 15.522-4.806 24.386.208.776.022 1.657-.375 3.139-5.731 2.085-2.995 6.328-3.457 9.458-.043 6.304-.086 12.609-.122 19.821-.015 3.317-.037 5.727-.06 8.137 0 0 .042-.042-.292-.046-1.41-.372-2.484-.74-3.608-1.567-.052-10.79-.103-21.12-.011-31.45.015-1.732.086-4.448 1.088-5.013 3.837-2.162 2.65-5.521 2.876-8.619.274-3.734-.69-8.563 1.276-10.926 2.708-3.255 2.332-6.302 2.831-9.69.304-2.058 1.77-3.944 2.714-5.908 1.684-2.64-.652-7.13 5.294-7.257-.258-3.704 1.299-5.849 3.234-8.715 2.606-3.86 3.848-8.453 8.26-11.426 2.231-1.505 4.977-4.962 4.624-7.052-.875-5.18 2.196-11.521-3.752-15.593-.697-.477-.47-2.472-.474-3.765-.032-10.996-.14-21.995.043-32.99.072-4.306-1.786-9.343 3.562-12.293.496-.274.33-1.86.367-2.84.394-10.527 1.242-12.848 7.963-21.62 3.264-4.261 9.402-4.615 13.147-.957.924.902 2.689 1.857 3.737 1.573 9.071-2.463 16.536 4.24 25.16 4.297.942.006 1.869 2.191 2.343 2.787 12.166 3.808 22.527 10.037 34.757 17.014 3.452.048 7.41 2.682 9.742 7.951h6.453l-.35-1.417c2.12-.84 4.177-2.062 6.375-2.42 2.597-.424 5.325.035 7.976-.162 1.187-.088 2.343-.801 3.48-1.307 1.9-.845 3.741-2.419 5.664-2.512 7.147-.345 14.318-.212 21.928-.201 2.857.08 5.267.101 7.656.103-.021-.021-.063-.062-.046.293-.351 1.43-.719 2.504-1.087 3.578-8.16.036-16.324-.08-24.474.222-1.894.07-3.702 1.651-5.61 2.378-1.63.621-3.326 1.339-5.027 1.441-3.646.218-7.314.067-11.046.067-2.305 7.174-8.182 3.405-12.457 3.838-5.057.512-6.144-4.854-9.756-7.886-2.22-.377-6.591 1.709-6.954-3.724-2.914-.956-6.9 1.625-8.108-3.705-.33-1.453-4.228-2.146-6.526-3.096-4.463-1.843-8.99-3.535-13.411-5.473-1.617-.709-3.004-1.94-4.304-3.247-3.527-2.48-9.697 2.716-11.814-4.716-4.412 0-8.895 0-14.027-.394-1.818-5.376-5.724-3.108-8.634-3.607zm185.027 20.248c-10.304-.043-20.609-.086-31.82-.122-3.318-.015-5.728-.037-8.138-.06 0 0 .042.042.046-.292.372-1.41.74-2.484 1.567-3.608 15.412-.016 30.365.017 45.484.363.412 1.416.658 2.518.903 3.62 0 0 .042-.041-.388-.045-2.838.046-5.246.095-7.654.144M455.108 461.889c-.033-9.62-.066-19.242.264-29.487 1.466-.87 2.568-1.115 3.67-1.36 0 0-.042-.042-.046.388.046 2.838.095 5.246.08 8.112-.022 5.43.021 10.402.007 15.815-.058 2.725-.058 5.008-.058 8.045z"/><path fill="#5F5F5F" d="M455.069 462.354c1.159-.032 2.279.4 3.956 1.048 0-3.037 0-5.32.46-8.008 1.476.904 3.17 2.116 3.372 3.54.426 3.001.071 6.114.037 9.18l-3.92-1.52c0 3.04 0 5.325-.057 8.05-1.342-.836-3.409-1.938-3.741-3.427-.598-2.676-.155-5.585-.107-8.863m163.283-203.423c.129-1.287.72-2.535 1.388-3.941 2.91.499 6.816-1.769 8.177 3.557-2.907.37-6.005.397-9.565.384m184.601 20.608c2.371-.448 4.779-.497 7.638-.563.696 1.084.94 2.186 1.352 3.601-2.92-.533-7.43 3.022-8.99-3.038M579.314 451.025c-.333-2.393-.311-4.803-.232-7.66 6.43-.027 3.052 4.887 3.849 8.303-1.113.076-2.188-.292-3.617-.643m-120.29-20.435c-1.084.697-2.186.942-3.601 1.352.533-2.919-3.021-7.429 3.039-8.99.447 2.372.496 4.78.562 7.639m120.514-7.544c.064-3.093-2.672-7.336 3.008-8.963-.502 2.892 3.053 7.403-3.008 8.963m183.437-143.733c2.393-.333 4.803-.311 7.66-.232.027 6.43-4.887 3.052-8.303 3.849-.076-1.113.292-2.188.643-3.617m183.319-20.384c.187-1.286.779-2.534 1.446-3.94 2.91.499 6.816-1.769 8.177 3.557-2.945.37-6.081.396-9.623.383M706.93 683.698c-2.415.034-4.793-.344-7.592-.78-.556-3.072 1.005-3.986 3.854-3.97 3.145.016 4.054 1.553 3.738 4.75m255.539-344.746c.43 2.386.468 4.809.449 7.682-1.34-.618-3.337-1.472-3.738-2.805-.628-2.086-.552-4.733 3.289-4.877m-499.89 91.103c-.537 2.918 3.02 7.43-3.04 8.993-.448-2.372-.497-4.78-.563-7.639 1.085-.696 2.187-.942 3.603-1.354m347.476-154.634c2.918.537 7.43-3.02 8.993 3.04-2.372.448-4.78.497-7.639.563-.696-1.085-.942-2.187-1.354-3.603M578.918 458.636c-6.43.026-3.051-4.889-3.849-8.305 1.113-.075 2.188.293 3.617.644.333 2.393.312 4.803.232 7.66m176.447-179.717c-.027-6.43 4.888-3.051 8.304-3.849.075 1.113-.293 2.188-.644 3.617-2.393.333-4.803.311-7.66.232"/></svg>