<svg xmlns="http://www.w3.org/2000/svg" viewBox="0 0 1600 900" xml:space="preserve"><path fill="#A6A6A6" d="M1601 324.556c-315.667.438-631.334.432-947.483-.057-.46-2.78-.438-5.076-.416-7.373 1.998-.042 3.996-.12 5.994-.12C972.757 317 1286.419 317 1600.54 317c.46 2.371.46 4.742.46 7.556"/><path fill="#565656" d="M660.9 345.127c2.332-.042 4.663-.122 6.994-.122 310.73-.005 621.46-.005 932.648-.005.458 2.37.458 4.74.458 7.555-310.725.445-621.45.445-932.174.443-2.332 0-4.665-.023-7.429-.51-.453-2.769-.475-5.065-.496-7.361M417.444 901a43575 43575 0 0 1-.007-339.532c2.77-.5 5.103-.534 7.436-.567.042 2.496.122 4.992.122 7.488.006 110.56.005 221.118.005 332.144-2.37.467-4.741.467-7.556.467"/><path fill="#A6A6A6" d="M396.874 581.101c.042 1.998.12 3.996.12 5.993.007 104.323.006 208.646.006 313.437-2.37.469-4.741.469-7.556.469a36695 36695 0 0 1 .057-319.472c2.78-.47 5.076-.449 7.373-.427m263.567-236.028c.481 2.35.503 4.646.492 7.371-28.991.477-57.95.525-87.822.586-3.348.039-5.781.065-8.674.04-6.69-.052-12.92-.052-19.315-.052 0 8.36 0 16.119-.04 24.321a670 670 0 0 0-.183 7.535h-27.862v27.992h-31.808v32.116c-2.73 0-4.985 0-7.717-.494-.53-2.86-.581-5.226-.582-8.051.018-8.084-.017-15.708-.012-23.782.053-2.852.066-5.255.08-7.658 0 0 .002.003.45.003 2.85-.041 5.253-.081 8.115-.07 8.017.052 15.574.052 23.315.052 0-7.015 0-13.446.04-20.327.053-2.852.066-5.255.08-7.658 0 0 .002.003.45.003 2.85-.041 5.253-.081 8.115-.07 6.69.052 12.92.052 19.315.052 0-8.36 0-16.119.04-24.321a670 670 0 0 0 .183-7.535c19.625-.048 39.25-.096 59.788-.156 3.348-.039 5.781-.065 8.674-.04 6.75.018 13.041-.017 19.787-.012 2.888.013 5.322-.013 7.756-.039 8.959.046 17.917.093 27.335.194M424.927 560.441c-2.387.493-4.72.526-7.49.56-.44.001-.437-.001-.437-.45-.041-2.85-.081-5.252-.07-8.114.018-6.75-.017-13.041-.012-19.787a473 473 0 0 0-.04-7.756c.047-19.624.094-39.249.634-59.366 2.86-.545 5.226-.598 8.051-.598 8.017.052 15.574.052 23.315.052 0-7.015 0-13.446.04-20.327.053-2.852.066-5.255.08-7.658 0 0 .002.003.437.003 2.754.055 5.073.11 7.448.601.118 2.792.178 5.148.238 7.505-.046 8.958-.093 17.916-.633 27.366-2.86.545-5.226.598-8.051.598-8.017-.052-15.574-.052-23.315-.052 0 7.015 0 13.446-.04 20.332a473 473 0 0 0 .04 7.756c-.047 19.625-.094 39.25-.195 59.335"/><path fill="#565656" d="M605.104 344.878c-2.434.027-4.867.053-7.755.04-.455-9.108-.455-18.178-.455-27.877 18.901 0 37.08 0 55.734.043.451 2.339.43 4.635.44 7.36-5.242.473-10.522.664-15.791.504-3.139-.095-4.482.846-4.328 4.174.227 4.937.076 9.891.121 15.298-2.398.485-4.832.511-7.685.038-.419-6.603-.419-12.707-.419-18.98h-19.862zM416.42 524.93c.485 2.398.511 4.832.038 7.685-6.603.419-12.707.419-18.98.419v19.862h19.4c.04 2.403.08 4.805.12 7.657-6.411.45-12.822.45-20.04.45 0 6.722 0 12.937-.042 19.625-2.339.451-4.635.43-7.36.44-.43-18.357-.43-36.748-.43-56.102 9.093 0 17.963 0 27.293-.036m92.111-147.932c.454 2.402.44 4.805-.072 7.622-8.054.414-15.609.414-23.354.414v19.844c-2.403.04-4.805.08-7.657.12-.45-9.07-.45-18.138-.45-27.999zm-51.704 60.168c-2.318-.055-4.637-.111-7.392-.168-.437-10.396-.437-20.79-.437-31.999h27.532c.455 2.401.442 4.804-.07 7.62-6.72.415-12.94.415-19.296.415 0 8.557 0 16.18-.084 23.885zm-8.296-.168c.454 2.402.44 4.805-.072 7.622-8.054.414-15.609.414-23.354.414v19.844c-2.366.052-4.732.105-7.538.19-.44-9.056-.44-18.145-.44-28.069zm88.097-91.914c.426 2.406.378 4.77-.169 7.541-6.721.409-12.944.409-19.354.409v23.844c-2.403.04-4.805.08-7.657.12-.45-10.408-.45-20.816-.45-31.957 9.39 0 18.273 0 27.63.043m28.269 8.038c2.434-.027 4.867-.053 7.755-.04.455 10.42.455 20.8.455 31.877-9.52 0-18.39 0-27.734-.043-.425-2.406-.377-4.77.17-7.541 6.721-.409 12.944-.409 19.354-.409zM425.58 501.07c-.485-2.398-.511-4.832-.038-7.685 8.054-.419 15.609-.419 23.354-.419v-19.844c2.366-.052 4.732-.105 7.538-.19.44 9.044.44 18.122.44 28.102-10.47 0-20.651 0-31.293.036"/><path fill="#565656" d="M457.58 445.07c-.52-2.32-.58-4.677-.697-7.469-.057-.435.112-.6.65-.627 6.808-.044 13.077-.06 19.345-.078.053 2.366.105 4.732.19 7.538-6.32.493-12.674.547-19.487.636"/></svg>