<svg xmlns="http://www.w3.org/2000/svg" viewBox="0 0 200 240" xml:space="preserve" width="200" height="200"><path fill="#fff" d="M139.856 181.697c-7.952 5.945-16.744 9.828-26.455 11.526-27.959 4.889-54.632-9.286-66.788-33.637-3.332-6.675-5.412-13.723-6.14-21.152a70 70 0 0 1-.356-6.413c-.043-7.421-.017-14.843-.017-22.264v-.938c4.301-.318 7.776-2.101 10.28-5.592 1.57-2.189 2.344-4.653 2.395-7.489-1.443-.006-2.836-.014-4.23-.018q-2.064-.003-4.127-.001h-4.259V82.566h1.02c3.871 0 7.742-.054 11.612.012 5.811.099 12.092-4.217 13-11.615.053-.436.007-.884.007-1.436H40.153V7.221c.158-.028.307-.084.454-.077 3.99.181 7.897.806 11.564 2.457C62.6 14.296 68.868 22.264 70.86 33.552c.452 2.564.437 5.161.438 7.749.014 29.462.002 58.924.019 88.386.002 2.842.061 5.679.629 8.496 2.459 12.185 12.191 21.88 24.395 24.223 16.665 3.199 32.642-7.16 36.345-23.71 3.906-17.46-7.442-33.713-23.798-37.162-1.868-.394-3.798-.49-5.7-.722-.249-.03-.5-.044-.8-.069V69.546c9.799.024 19.062 2.133 27.763 6.523 13.057 6.587 22.753 16.524 28.879 29.803 12.049 26.12 4.742 57.752-19.174 75.825"/></svg>