<svg xmlns="http://www.w3.org/2000/svg" viewBox="0 0 200 200" xml:space="preserve" width="200" height="200"><path fill="#fff" d="M54.917 23.521c12.294-7.214 25.465-11.277 39.614-12.175 15.921-1.011 31.072 1.947 45.319 9.093 17.255 8.654 30.416 21.572 39.401 38.693 5.834 11.118 9.124 22.949 9.869 35.481 1.212 20.408-3.861 39.137-15.438 55.969-12.153 17.669-28.669 29.475-49.279 35.412-12.028 3.465-24.289 4.174-36.694 2.443a87.3 87.3 0 0 1-27.844-8.774c-10.06-5.14-18.852-11.943-26.343-20.427-8.922-10.105-15.271-21.614-18.974-34.567-3.088-10.801-4.045-21.804-2.988-32.992 1.038-10.983 4.04-21.403 8.957-31.259 3.803-7.624 8.638-14.551 14.442-20.8 5.859-6.309 12.512-11.627 19.959-16.095m95.508 126.787c1.805-2.016 3.723-3.942 5.395-6.063 7.059-8.959 11.816-19.026 13.971-30.239 2.907-15.127 1.172-29.733-5.293-43.745-1.733-3.755-3.79-7.321-6.136-10.57l-98.665 98.642c26.008 18.616 64.805 17.728 90.728-8.024M30.952 85.048c-4.24 20.942-.089 40.07 12.17 57.294l99.178-99.18c-9.56-7.065-20.35-11.543-32.276-13.156-14.012-1.896-27.457.128-40.257 6.214-9.436 4.487-17.465 10.779-24.136 18.81-7.279 8.762-12.112 18.729-14.681 30.015m47.682 60.277c-.792-.401-1.499-.777-2.266-1.183.319-.336.552-.593.797-.837 6.054-6.057 12.114-12.107 18.157-18.176.468-.47.877-.706 1.595-.601 9.915 1.457 20.065-3.662 24.803-12.485.29-.54.546-.901 1.285-.899 8.486.033 16.972.021 25.458.023.152 0 .303.03.458.047-6.08 29.256-39.317 48.576-70.286 34.11M133.362 87.1l10.746-10.752c2.155 3.816 3.6 7.793 4.687 12.007h-16.67zm-52.028-2.507c-4.95 6.205-6.63 13.132-5.051 20.825.19.923.02 1.517-.672 2.201-5.843 5.773-11.637 11.596-17.441 17.409-.27.27-.488.592-.759.925-11.327-18.642-9.512-44.174 7.6-61.181 16.884-16.78 42.301-18.714 60.807-7.444-.212.227-.411.455-.624.668-5.945 5.946-11.893 11.888-17.832 17.84-.455.456-.808.663-1.576.511-9.674-1.92-17.849.733-24.452 8.247"/></svg>