<svg xmlns="http://www.w3.org/2000/svg" viewBox="0 0 820 820" xml:space="preserve"><path fill="#FF6A00" d="M371 821H1V1h820v820zm-44.731-261.277c15.168-8.259 30.449-8.661 45.925-.809 2.362 1.198 4.977 1.893 7.47 2.833 32.91 12.404 66.465 14.766 100.642 6.21 26.631-6.669 50.16-18.921 68.434-39.856 24.123-27.636 34.514-60.691 35.01-96.647.74-53.645.241-107.307.114-160.962-.012-5.287-.677-10.664-1.786-15.84-2.629-12.258-10.426-19.965-22.52-22.822-11.991-2.832-24.187-2.819-36.178.013-11.762 2.778-20.071 9.802-22.734 21.973-1.414 6.465-2.386 13.155-2.474 19.759-.298 22.49.012 44.99-.145 67.483-.206 29.645-.205 59.302-1.137 88.928-.504 16.04-4.41 31.59-16.052 43.621-16.275 16.822-36.524 19.587-58.165 14.044-20.562-5.266-32.54-19.606-37.227-39.762-2.17-9.332-3.229-19.105-3.352-28.696-.404-31.655-.011-63.319-.256-94.976-.058-7.452-.852-15.004-2.288-22.317-3.444-17.544-15.188-29.424-29.16-39.034-45.467-31.273-95.345-41.759-149.288-29.221-41.937 9.747-75.633 32.506-100.052 68.121-24.2 35.295-33.432 74.668-30.102 117.154 3.664 46.756 21.946 86.503 57.334 117.685 31.251 27.537 68.291 40.85 109.645 42.269 30.717 1.054 59.821-6.094 88.342-19.151M710.944 513.5c0-80.327.046-160.655-.091-240.982-.01-6.107-.733-12.354-2.155-18.29-2.836-11.835-10.282-19.634-22.42-22.296-12.71-2.788-25.481-2.988-38.127.301-10.526 2.738-17.662 9.51-20.314 20.022-1.654 6.559-2.653 13.47-2.667 20.227-.174 83.993-.15 167.987-.034 251.98.008 5.79.72 11.666 1.858 17.35 2.708 13.52 11.283 21.543 24.627 24.455 10.723 2.34 21.51 2.336 32.262.108 14.054-2.911 23-11.367 25.335-25.514 1.427-8.647 1.207-17.565 1.726-27.361"/><path fill="#FFFEFE" d="M325.924 559.886c-28.176 12.894-57.28 20.042-87.997 18.988-41.354-1.42-78.394-14.732-109.645-42.27-35.388-31.181-53.67-70.928-57.334-117.684-3.33-42.486 5.903-81.859 30.102-117.154 24.419-35.615 58.115-58.374 100.052-68.121 53.943-12.538 103.821-2.052 149.289 29.221 13.971 9.61 25.715 21.49 29.16 39.034 1.435 7.313 2.23 14.865 2.287 22.317.245 31.657-.148 63.321.256 94.976.123 9.591 1.182 19.364 3.352 28.696 4.687 20.156 16.665 34.496 37.227 39.762 21.64 5.543 41.89 2.778 58.165-14.044 11.642-12.032 15.548-27.581 16.052-43.621.932-29.626.931-59.283 1.137-88.928.157-22.494-.153-44.992.145-67.483.088-6.604 1.06-13.294 2.474-19.76 2.663-12.17 10.972-19.194 22.734-21.972 11.99-2.832 24.187-2.845 36.177-.013 12.095 2.857 19.892 10.564 22.52 22.823 1.11 5.175 1.775 10.552 1.787 15.84.127 53.654.626 107.316-.114 160.961-.496 35.956-10.887 69.01-35.01 96.647-18.274 20.935-41.803 33.187-68.434 39.855-34.177 8.557-67.732 6.195-100.641-6.209-2.494-.94-5.11-1.635-7.47-2.833-15.477-7.852-30.758-7.45-46.27.972M295.064 379.5c-.277-10.31-.268-20.636-.9-30.924-.92-14.984-9.496-24.506-23.013-29.77-30.68-11.95-63.275-3.88-85.424 19.293-32.938 34.461-34.553 88.664-4.843 125.907 23.848 29.896 64.747 38.875 98.13 21.69 12.862-6.623 18.355-17.236 17.978-31.354-.659-24.614-1.287-49.228-1.928-74.842"/><path fill="#FFFEFD" d="M710.944 514c-.52 9.296-.3 18.214-1.726 26.86-2.335 14.148-11.281 22.604-25.335 25.515-10.752 2.228-21.539 2.233-32.262-.108-13.344-2.912-21.92-10.935-24.627-24.455-1.139-5.684-1.85-11.56-1.858-17.35-.116-83.993-.14-167.987.034-251.98.014-6.756 1.013-13.668 2.667-20.227 2.652-10.513 9.788-17.284 20.314-20.022 12.646-3.289 25.417-3.089 38.127-.301 12.138 2.662 19.584 10.461 22.42 22.297 1.422 5.935 2.144 12.182 2.155 18.29.137 80.326.091 160.654.091 241.48"/><path fill="#FF6B02" d="M295.065 380c.641 25.114 1.27 49.728 1.928 74.342.377 14.118-5.116 24.731-17.979 31.353-33.382 17.186-74.28 8.207-98.13-21.689-29.71-37.243-28.094-91.446 4.844-125.907 22.149-23.173 54.745-31.242 85.424-19.293 13.517 5.264 22.093 14.786 23.013 29.77.632 10.288.623 20.615.9 31.424"/></svg>