<svg version="1.1" id="Layer_1" xmlns="http://www.w3.org/2000/svg" xmlns:xlink="http://www.w3.org/1999/xlink" x="0px" y="0px"
	 width="100%" viewBox="0 0 820 820" enable-background="new 0 0 820 820" xml:space="preserve">
<path fill="#FFFEFE" opacity="1.000000" stroke="none" 
	d="
M325.924316,559.885864 
	C297.748199,572.780151 268.644440,579.928101 237.927200,578.873840 
	C196.573441,577.454529 159.533371,564.141541 128.282196,536.604858 
	C92.893646,505.422607 74.611954,465.675964 70.947845,418.920197 
	C67.618309,376.433502 76.850677,337.061432 101.049988,301.766357 
	C125.468697,266.151337 159.164627,243.392319 201.101730,233.644928 
	C255.044907,221.107010 304.923065,231.592972 350.390625,262.866058 
	C364.362305,272.475891 376.105804,284.356140 379.550171,301.899658 
	C380.986053,309.212982 381.780212,316.765106 381.837830,324.216614 
	C382.082611,355.874451 381.689636,387.538483 382.094482,419.193024 
	C382.217163,428.784332 383.276428,438.557220 385.446381,447.888916 
	C390.133362,468.044922 402.111145,482.385284 422.673431,487.651398 
	C444.313599,493.193573 464.562592,490.428864 480.838470,473.607117 
	C492.479736,461.575409 496.385742,446.025970 496.890106,429.985596 
	C497.821686,400.360199 497.821075,370.703156 498.027161,341.058014 
	C498.183563,318.564056 497.874359,296.065643 498.172302,273.574524 
	C498.259766,266.971344 499.231842,260.280762 500.646118,253.815643 
	C503.308502,241.645370 511.617737,234.621277 523.380432,231.843231 
	C535.370911,229.011429 547.566895,228.998154 559.557129,231.830338 
	C571.651855,234.687164 579.449219,242.394379 582.077515,254.652542 
	C583.187195,259.827667 583.851562,265.204865 583.864075,270.492218 
	C583.991211,324.146820 584.489563,377.809387 583.749756,431.454071 
	C583.253845,467.409607 572.863037,500.464874 548.739868,528.101013 
	C530.466064,549.035889 506.937103,561.288330 480.305511,567.956360 
	C446.128845,576.513489 412.574463,574.150696 379.664734,561.747314 
	C377.171204,560.807495 374.555542,560.112488 372.194183,558.914307 
	C356.717926,551.061768 341.436523,551.464294 325.924316,559.885864 
M295.065430,379.500000 
	C294.787872,369.190765 294.796600,358.863922 294.164825,348.576447 
	C293.244598,333.592072 284.669312,324.070343 271.152405,318.805786 
	C240.472839,306.856750 207.876907,314.926025 185.728180,338.098969 
	C152.790039,372.560333 151.174744,426.763214 180.884537,464.006256 
	C204.733475,493.902344 245.631836,502.881226 279.014252,485.695312 
	C291.876862,479.073456 297.370209,468.459869 296.992584,454.342010 
	C296.334259,429.728424 295.706207,405.114044 295.065430,379.500000 
z M710.944214,513.999756 
	C710.424561,523.295837 710.644714,532.214111 709.217590,540.860535 
	C706.882507,555.007568 697.936890,563.463867 683.883301,566.375366 
	C673.130981,568.602905 662.343994,568.607544 651.620911,566.267151 
	C638.276611,563.354553 629.701782,555.331848 626.993896,541.812134 
	C625.855408,536.127625 625.143616,530.252441 625.135620,524.462646 
	C625.019531,440.469147 624.995605,356.475250 625.170105,272.481934 
	C625.184143,265.725891 626.182861,258.813995 627.837341,252.255356 
	C630.489441,241.742340 637.624512,234.970657 648.150818,232.233002 
	C660.796692,228.944107 673.567566,229.144119 686.277710,231.931519 
	C698.416443,234.593613 705.862305,242.393082 708.697937,254.228729 
	C710.119873,260.163940 710.842102,266.410736 710.852600,272.518372 
	C710.990173,352.845337 710.944214,433.172607 710.944214,513.999756 
z"/>
</svg>