<svg viewBox="0 0 820 820" xml:space="preserve" xmlns="http://www.w3.org/2000/svg"><path fill="#fff" d="M666.19 230c-53.903-.045-42.086 49.215-42.38 160.476-.313 117.943-11.743 176.336 42.857 177.143 60.359.892 45.488-62.236 44.285-180C709.797 274.524 722.917 230.048 666.19 230m-426.27-1.705c-133.648 2.022-171.562 123.06-170.557 173.072-3.014 98.648 84.575 187.259 173.746 177.787 52.57.344 86.856-25.318 107.047-25.847 15.195-.563 47.939 21.118 88.924 19.722 65.153 2.264 148.272-42.367 144.783-151.459l.006-150.091c-1.034-34.663-15.17-39.809-43.773-41.416-32.113 2.023-41.003 9.295-41.754 43.351l-1.387 155.902c1.739 78.755-117.107 89.02-114.879-11.054 0 0-.222-65.545-.213-99.85.018-60.41-81.848-90.115-138.753-90.117 0 0-1.128-.031-3.19 0m3.412 84.535c61.618 1.231 51.895 48.653 52.383 90.027.584 49.542 15.004 97.29-66.192 90.477-44.056-3.696-71.59-52.615-70.476-90.953 1.15-39.583 33.265-88.304 78.096-89.524q3.207-.087 6.189-.027"/></svg>