<svg width="24" height="24" viewBox="0 0 24 24" xmlns="http://www.w3.org/2000/svg"><path fill="#fff" d="M15.102 4.01c-.715.045-1.191.39-1.073 1.174-.398-.249-3.68-.228-4.02-.04.022-2.015-3.224-.968-4.866.3C4.1 6.041 1.763 11.29 1.94 16.35c.579 1.992 2.973 2.723 4.686 3.582 1.394.403 2.262-1.58.037-2.18l.56-.662c4.006 1.669 8.224.62 9.506.04l.63.602c-2.614.971-1.046 2.577-.069 2.221 1.973-.927 4.354-1.644 4.803-3.963.207-2.623-1.441-8.98-3.082-10.386-.865-.919-2.719-1.67-3.91-1.594M8.75 10.496a1.746 1.746 0 0 1 1.746 1.746 1.746 1.746 0 0 1-1.746 1.746 1.746 1.746 0 0 1-1.746-1.746 1.746 1.746 0 0 1 1.746-1.746m6.498.002a1.746 1.746 0 0 1 1.746 1.746 1.746 1.746 0 0 1-1.746 1.746 1.746 1.746 0 0 1-1.746-1.746 1.746 1.746 0 0 1 1.746-1.746"/><g/></svg>