<svg width="24" height="24" viewBox="0 0 24 24" xmlns="http://www.w3.org/2000/svg"><path fill="#fff" d="M7.024 2.31a9 9 0 0 1 2.125 1.046 11.6 11.6 0 0 1 5.7-.001c3.71-2.473 5.617-1.174 4.864 3.023 2.813 3.632.79 8.38-4.046 10.021.538 1.46.333 3.07.333 4.601a1 1 0 0 1-1 1H9c-1.098-.247-1-1.05-1-1.991-3.905.478-4.302-2.722-5.316-3.06-1.265-.421-.633-2.32.632-1.898 1.79.597 2.081 3.459 4.684 2.929a4 4 0 0 1 .333-1.581c-4.604-1.562-6.982-6.224-4.049-10.017-.46-2.277-.112-4.694 2.739-4.071Z"/></svg>