<svg xmlns="http://www.w3.org/2000/svg" viewBox="10 30 180 180" xml:space="preserve" width="180" height="180"><path fill="#F7F7F7" d="M112.404 118.107c-2.716.004-5.435.062-8.149-.017-1.037-.03-2.129.062-3.116-.453-1.746-.911-2.983-2.211-3.263-4.243a9 9 0 0 1-.095-1.235c-.007-3.767-.016-7.533.003-11.3.006-1.122.236-2.2.912-3.142 1.073-1.495 2.466-2.401 4.358-2.429 1.645-.024 3.289-.094 4.934-.095q21.625-.012 43.25 0c1.655.001 3.158.456 4.33 1.707.881.941 1.415 2.044 1.442 3.345.049 2.395.128 4.791.085 7.184-.032 1.749-.22 3.497-.378 5.242-.134 1.479-.272 2.961-.506 4.427-.301 1.886-.641 3.771-1.07 5.632-.764 3.315-1.742 6.572-3.259 9.628-1.213 2.445-2.434 4.897-3.834 7.236-1.472 2.459-3.115 4.82-4.777 7.157-.879 1.236-1.929 2.357-2.954 3.482-1.03 1.13-2.065 2.268-3.204 3.283a80 80 0 0 1-4.939 4.057c-2.276 1.717-4.742 3.138-7.324 4.355-2.998 1.413-6.09 2.572-9.311 3.349-1.837.443-3.701.781-5.563 1.104-1.003.174-2.029.217-3.045.318l-3.981.396c-.099.01-.2.007-.3.006-2.244-.033-4.495.024-6.732-.126-2.161-.145-4.311-.483-6.462-.771-3.198-.428-6.307-1.243-9.357-2.281a56 56 0 0 1-8.405-3.665c-2.507-1.344-4.916-2.859-7.169-4.596a56 56 0 0 1-3.973-3.36c-1.507-1.403-3.01-2.828-4.361-4.377-1.583-1.816-3.058-3.734-4.476-5.682a50.5 50.5 0 0 1-4.645-7.728c-1.358-2.808-2.773-5.603-3.506-8.663-.261-1.088-.126-2.186.194-3.265.57-1.921 1.632-3.578 2.788-5.171 1.134-1.562 2.373-3.046 3.551-4.577 1.167-1.517 2.356-3.02 3.461-4.581 1.457-2.059 2.481-4.324 2.988-6.811.284-1.391.039-2.729-.33-4.062-.685-2.479-1.982-4.644-3.496-6.683-2.245-3.022-4.57-5.984-6.787-9.025-1.073-1.473-1.918-3.093-2.289-4.918-.231-1.14-.312-2.283.098-3.384a139 139 0 0 1 2.19-5.535c.509-1.204 1.093-2.379 1.697-3.539 1.674-3.22 3.596-6.289 5.851-9.132 1.355-1.708 2.819-3.33 4.259-4.968 2.375-2.702 5.151-4.949 8.071-7.027a49 49 0 0 1 8.087-4.635c3.053-1.393 6.191-2.579 9.462-3.349 2.239-.527 4.5-.977 6.766-1.374 1.31-.23 2.648-.311 3.977-.416 1.597-.127 3.197-.216 4.797-.306.91-.051 1.825-.135 2.732-.091a128 128 0 0 1 5.431.398c1.39.128 2.781.283 4.16.501 1.428.226 2.846.52 4.26.822 2.772.591 5.449 1.492 8.055 2.593 2.778 1.173 5.486 2.5 7.963 4.235 1.851 1.296 3.714 2.595 5.428 4.061 1.863 1.593 3.604 3.336 5.313 5.097 1.102 1.135 2.095 2.385 3.049 3.65.555.735.855 1.619.919 2.576.147 2.198-.809 3.839-2.502 5.127-2.231 1.698-4.466 3.39-6.697 5.087-1.814 1.38-3.587 2.816-5.447 4.13-2.073 1.464-4.47 1.411-6.273.092-.826-.604-1.522-1.419-2.17-2.225-1.265-1.573-2.675-2.993-4.174-4.34-1.763-1.583-3.735-2.834-5.865-3.852-2.246-1.073-4.59-1.853-7.047-2.245-1.298-.207-2.615-.302-3.927-.407a29 29 0 0 0-2.732-.099 28 28 0 0 0-7.163 1.052c-2.94.824-5.722 2.026-8.169 3.859-1.544 1.157-2.994 2.46-4.377 3.808-.917.894-1.689 1.95-2.44 2.996-1.178 1.642-1.222 3.458-.678 5.35.537 1.865 1.418 3.568 2.418 5.207 1.712 2.805 3.54 5.541 5.202 8.374 1.502 2.559 2.694 5.279 3.205 8.228a17.2 17.2 0 0 1-.126 6.548c-.509 2.417-1.404 4.689-2.582 6.838-1.072 1.955-2.282 3.833-3.42 5.752-1.196 2.017-2.429 4.014-3.549 6.073-.719 1.323-1.201 2.761-1.279 4.293-.087 1.712.537 3.184 1.62 4.461.932 1.098 1.867 2.207 2.908 3.198 1.751 1.666 3.656 3.14 5.787 4.319 2.79 1.544 5.771 2.518 8.884 3.109.999.19 2.026.256 3.043.312 1.309.072 2.624.138 3.933.091 1.229-.044 2.455-.227 3.68-.369 1.678-.196 3.289-.667 4.873-1.232 2.731-.974 5.262-2.312 7.488-4.19.76-.641 1.561-1.244 2.249-1.956 1.916-1.982 3.603-4.146 4.757-6.669a23 23 0 0 0 1.2-3.249c.428-1.501-.094-2.858-.968-4.056-1.118-1.531-2.661-2.252-4.578-2.249-2.745.004-5.49-.059-8.236-.091a3.6 3.6 0 0 0-.629.053c-.031.03-.028.036-.028.036m-14.8-13.8v-3.79h.056v12.48H97.6zm14.799 13.899c-.143.034-.285.096-.428.096q-3.867.007-7.734.002c-.047 0-.094-.017-.14-.087 2.737 0 5.473 0 8.256-.005.046-.005.045-.006.045-.006m44.902-11.8v1.291h-.058v-6.881l.058-.001zm-44.896 11.704 7.09.002v.095h-7.049c-.047 0-.046.001-.045.001s.006-.046.005-.07-.004-.03-.001-.028"/></svg>