<svg viewBox="0 0 200 200" xml:space="preserve" width="200" height="200" xmlns="http://www.w3.org/2000/svg"><path fill="#fff" d="M54.917 23.521c121.273-54.813 192.256 117.135 69.486 162.473C21.313 212.724-34.669 77.273 54.918 23.523m95.508 126.787c27.558-27.721 24.578-67.57 7.937-90.617l-98.665 98.642c26.008 18.616 64.805 17.728 90.728-8.024M30.952 85.048c-4.24 20.942-.089 40.07 12.17 57.294l99.178-99.18c-40.468-29.907-99.734-9.15-111.35 41.883m47.682 60.277c-.792-.401-1.499-.777-2.266-1.183 6.282-6.372 12.633-12.679 18.954-19.013.895-.897.877-.706 1.595-.601 17.412 2.559 24.804-13.387 26.088-13.384 17.265.067 24.92-.04 25.916.07-6.08 29.256-39.317 48.576-70.286 34.11m65.475-68.973c2.155 3.816 3.6 7.793 4.687 12.007h-16.67c3.977-4.02 7.986-8.008 11.983-12.007m-62.774 8.245c-4.95 6.205-6.63 13.132-5.051 20.825.19.923.303 1.191-.127 1.656-5.816 6.286-11.289 11.922-18.745 18.879-26.78-44.075 24.801-95.18 68.407-68.625-6.112 6.207-11.975 12.686-18.456 18.508-.787.707-.653.707-1.576.511-9.674-1.92-17.849.733-24.452 8.247"/></svg>