<svg width="200" height="200" viewBox="0 0 200 200" xmlns="http://www.w3.org/2000/svg"><path fill="#b3a7a7" d="M27.003 114.257c1.653 8.043 15.457 12.256 13.88-2.759-12.028-66.915 68.207-85.535 88.501-62.02-5.293 2.939-15.63 1.962-15.795 9.755 1.893 12.643 43.582 7.967 45.913 3.689 1.96-.122 7.373-43.945-4.608-44.585-8.095 1.655-8.065 12.676-8.553 19.294-95.99-42.47-129.12 41.708-119.338 76.626m147.312-28.753c-1.653-8.044-15.457-12.256-13.88 2.758 12.028 66.915-68.207 85.536-88.501 62.02 5.293-2.938 15.63-1.962 15.795-9.755-1.893-12.643-43.582-7.967-45.913-3.689-1.96.122-7.373 43.945 4.608 44.586 8.095-1.656 8.065-12.677 8.553-19.294 95.99 42.468 129.12-41.708 119.338-76.626"/></svg>