<svg xmlns="http://www.w3.org/2000/svg" viewBox="5 12.5 190 190" xml:space="preserve" width="200" height="200"><path fill="#fff" d="M59.888 89.552c-3.681-13.14 1.582-28.665 12.721-36.871 3.401-2.506 7.243-4.424 10.93-6.528 14.159-8.082 28.337-16.131 42.51-24.19 1.536-.873 1.587-.885 2.327.679 5.905 12.478 5.079 24.554-2.353 36.14-3.181 4.96-7.598 8.657-12.699 11.556q-8.396 4.773-16.788 9.553c-.42.239-.827.501-1.197 1.014.634.042 1.268.087 1.902.127 4.941.309 9.958.176 14.808 1.011 13.268 2.284 22.552 9.897 27.314 22.48 4.854 12.829 2.919 24.835-5.672 35.621-2.994 3.759-6.839 6.485-11.013 8.867-17.276 9.862-34.489 19.835-51.726 29.765-1.458.84-1.472.834-2.243-.653-3.934-7.589-4.978-15.568-3.143-23.907 1.964-8.921 6.602-16.201 14.054-21.439 4.274-3.005 8.955-5.434 13.471-8.092 3.734-2.198 7.495-4.351 11.241-6.53.343-.2.659-.445 1.245-.846-1.927-.107-3.551-.19-5.174-.288-3.788-.23-7.641-.103-11.352-.766-14.683-2.621-24.227-11.248-28.8-25.415-.127-.393-.221-.796-.362-1.289"/></svg>