<svg xmlns="http://www.w3.org/2000/svg" viewBox="-15 -5 230 230" xml:space="preserve" width="200" height="200"><path fill="#fff" d="M137.16 184.541c.208-2.135.166-4.276.189-6.417.281-26.153.124-52.306.139-78.459.002-2.546.011-5.092-.015-7.638a753 753 0 0 0-.144-8.503c-.034-1.585-.176-1.809-1.583-2.6-2.572-1.445-5.159-2.866-7.726-4.32-2.265-1.283-4.514-2.596-6.768-3.898-3.582-2.069-7.166-4.136-10.745-6.21-3.705-2.146-7.401-4.306-11.109-6.448-5.361-3.096-10.732-6.175-16.093-9.271-4.784-2.761-9.553-5.551-14.342-8.307-4.513-2.597-9.042-5.167-13.567-7.743-1.911-1.087-3.833-2.154-5.747-3.237a16 16 0 0 1-1.101-.693c-.135-.092-.234-.238-.326-.334.015-.337.247-.43.441-.542q2.252-1.305 4.512-2.6l9.266-5.297c2.235-1.278 4.473-2.551 6.699-3.843 2.252-1.307 4.482-2.651 6.739-3.948 2.483-1.427 4.99-2.811 7.478-4.23 3.141-1.791 6.272-3.6 9.412-5.393.602-.344 1.221-.66 1.843-.968 2.028-1.004 4.083-1 6.108-.036a59 59 0 0 1 4.147 2.18c3.432 1.982 6.83 4.021 10.257 6.012 3.852 2.238 7.721 4.447 11.582 6.67 2.858 1.646 5.713 3.297 8.572 4.94 3.712 2.133 7.431 4.256 11.14 6.394 2.908 1.676 5.805 3.369 8.708 5.052 4.38 2.539 8.759 5.079 13.143 7.611a3788 3788 0 0 0 11.134 6.403 166 166 0 0 0 3.64 2.025c.788.426 1.593.823 2.4 1.212 1.339.646 1.356.641 1.46 2.148.048.692.054 1.388.055 2.082q.006 8.246.005 16.491-.002 34.153-.008 68.306c0 1.649.028 3.299-.022 4.947-.088 2.89-.107 5.783-.423 8.664-.092.844-.447 1.48-1.088 1.988q-.408.324-.842.612c-3.045 2.007-6.188 3.852-9.352 5.663-3.69 2.113-7.372 4.242-11.058 6.362-3.21 1.847-6.422 3.688-9.63 5.538-3.108 1.792-6.208 3.596-9.317 5.385-2.332 1.342-4.671 2.67-7.01 4.001a5 5 0 0 1-.86.382c-.121-.049-.159-.089-.197-.128m-64.061-62.144c-.022-.606-.04-1.126-.064-1.646-.052-1.136-.585-1.961-1.571-2.53-1.278-.737-2.525-1.528-3.805-2.26-4.746-2.714-9.509-5.4-14.251-8.122-5.57-3.197-11.126-6.418-16.687-9.633a6498 6498 0 0 1-11.416-6.612c-3.777-2.194-7.545-4.405-11.326-6.594-1.126-.652-2.286-1.245-3.424-1.878a15 15 0 0 1-1.329-.816c-.38-.269-.376-.528-.027-.853.168-.156.357-.296.553-.416.493-.302.979-.624 1.498-.874 1.827-.882 3.546-1.955 5.295-2.974 4.874-2.84 9.733-5.706 14.611-8.539 3.977-2.31 7.974-4.587 11.961-6.88 1.354-.779 2.692-1.587 4.063-2.336a77 77 0 0 1 3.56-1.805c.545-.262 1.135-.43 1.698-.659.631-.256 1.244-.217 1.849.067 1.047.493 2.11.954 3.131 1.496 1.431.759 2.837 1.564 4.239 2.376 3.155 1.826 6.296 3.676 9.452 5.501 6.437 3.721 12.881 7.43 19.32 11.148 6.238 3.602 12.472 7.212 18.711 10.813 2.355 1.359 4.72 2.702 7.08 4.053.251.144.495.3.743.449.375.226.589.545.587.994 0 .116.013.231.015.347.032 1.62.088 3.239.089 4.859.012 17.909.022 35.818.014 53.728a286 286 0 0 1-.158 8.59c-.044 1.444-.198 2.884-.305 4.326-.015.202-.049.402-.08.602-.118.75-.472 1.361-1.084 1.813q-.522.389-1.062.753c-2.765 1.854-5.631 3.544-8.512 5.209-4.709 2.721-9.41 5.457-14.121 8.175-2.932 1.691-5.882 3.352-8.813 5.045-1.327.767-2.623 1.588-3.942 2.37a704 704 0 0 1-5.169 3.024 8 8 0 0 1-.935.457c-.148.061-.324.054-.537.085-.026-.247-.064-.442-.063-.636.02-2.17.037-4.339.071-6.509.285-18.284.082-36.569.133-54.854.008-2.922.006-5.844.007-8.852m-19.921 21.695c.027 5.553.087 11.019.071 16.485-.019 6.681-.102 13.361-.159 20.041a5 5 0 0 1-.045.691c-.031.207-.256.344-.461.283a2.7 2.7 0 0 1-.56-.228c-.859-.477-1.717-.957-2.567-1.45-1.925-1.119-3.837-2.26-5.768-3.369-3.762-2.16-7.539-4.293-11.299-6.458-4.336-2.496-8.661-5.012-12.987-7.524a3458 3458 0 0 1-8.545-4.98 49 49 0 0 1-1.625-1 3 3 0 0 1-.465-.387c-.057-.055-.077-.15-.134-.27.114-.112.216-.253.352-.339.244-.153.504-.285.766-.406 2.261-1.044 4.426-2.27 6.582-3.509 2.457-1.411 4.884-2.875 7.33-4.305a1387 1387 0 0 1 7.277-4.227c2.655-1.531 5.318-3.05 7.977-4.575 3.788-2.172 7.579-4.34 11.445-6.373.358-.188.703-.402 1.059-.595.331-.179.66-.363 1.004-.512.441-.191.655-.056.699.426.026.287.023.578.024.867.011 3.876.02 7.751.03 11.714"/></svg>