<svg viewBox="0 0 1886.373 1268.048" xml:space="preserve" width="1886.373" height="1268.048" xmlns="http://www.w3.org/2000/svg"><path fill="#db3d55" d="M377.993 550.123c58.293-301.97 210.757-426.129 295.9-473.157 137.615-61.339 296.55 55.681 418.68 118.64 168.386 129.348 432.335 135.034 512.817 355.546 4.52 142.645-201.692 134.632-326.849 179.94-264.894 90.743-408.105-43.955-610.4-63.035-121.02-9.215-306.857 100.523-290.148-117.934" style="stroke-width:.911347"/><path fill="#f4d9e0" d="M1212.223 1081.13c-97.632 40.126-197.012 31.636-297.68 9.002-90.268-22.017-164.82 10.696-244.446-32.9-120.75-80.136-83.105-285.813 45.022-267.129 179.796 44.253 360.304 89.416 530.22 33.593 144.903-50.607 366.706-66.643 422.514-80.08 163.874-51.131 185.916 168.113 60.208 243.865-79.264 52.83-232.797-14.416-515.838 93.65M89.18 784.482c46.57-103.286 139.26-94.132 192.42-67.955 81.49 40.129 127.361 134.758 82.731 205.095-1.17 1.845-1.852 3.995-2.76 6.003 0 0-.036-.07-.333-.025-1.312 1.557-2.328 3.068-3.344 4.58C248.292 1058.463 56.078 882.314 84.52 800.74"/></svg>