<?xml version="1.0" encoding="UTF-8" standalone="no"?>
<svg
   viewBox="0 0 1886.373 1268.048"
   xml:space="preserve"
   version="1.1"
   id="svg2"
   sodipodi:docname="santahat.svg"
   inkscape:export-filename="santahat.svg"
   inkscape:export-xdpi="182.62262"
   inkscape:export-ydpi="182.62262"
   width="1886.373"
   height="1268.048"
   xmlns:inkscape="http://www.inkscape.org/namespaces/inkscape"
   xmlns:sodipodi="http://sodipodi.sourceforge.net/DTD/sodipodi-0.dtd"
   xmlns="http://www.w3.org/2000/svg"
   xmlns:svg="http://www.w3.org/2000/svg"><defs
     id="defs2" /><sodipodi:namedview
     id="namedview2"
     pagecolor="#505050"
     bordercolor="#ffffff"
     borderopacity="1"
     inkscape:showpageshadow="0"
     inkscape:pageopacity="0"
     inkscape:pagecheckerboard="1"
     inkscape:deskcolor="#505050" /><path
     fill="#db3d55"
     d="M 377.99284,550.12267 C 436.28627,248.15334 588.75014,123.99416 673.89391,76.966286 751.83882,33.913726 813.4841,54.791858 888.18979,96.160231 946.93555,128.68156 1003.83,148.92833 1092.5735,195.60673 c 60.2044,31.87245 99.6987,76.46868 171.8731,101.2602 135.0462,42.91882 301.0652,103.02924 340.9438,254.28553 4.5197,142.64435 -201.692,134.63141 -326.8493,179.93949 -264.8939,90.74348 -408.10479,-43.95457 -610.40053,-63.03471 -90.42819,-14.00982 -150.20899,23.47185 -203.10681,18.92084 -11.61318,-0.99936 -102.76619,-12.81554 -87.04092,-136.85541"
     id="path1"
     sodipodi:nodetypes="cccccscccc"
     inkscape:export-filename="santahat.svg"
     inkscape:export-xdpi="96"
     inkscape:export-ydpi="96"
     style="stroke-width:0.911347" /><path
     fill="#f4d9e0"
     d="m 1212.2232,1081.1304 c -29.5954,10.6221 -59.887,18.3116 -90.7409,24.1922 -6.4405,1.2382 -30.6541,5.693 -47.3854,6.3366 -54.5717,6.0141 -106.98404,-10.1491 -159.55426,-21.5275 -90.26766,-22.0164 -164.81959,10.6959 -244.44584,-32.8996 -120.74889,-80.13639 -83.10468,-285.81345 45.02247,-267.12896 156.13011,14.35371 218.45868,61.54455 412.44843,57.04616 15.508,-0.57614 102.3709,-21.70737 117.771,-23.45302 144.9035,-50.60753 366.706,-66.64376 422.5139,-80.08086 11.8014,-2.84258 24.1805,-3.39512 36.3234,-4.76787 127.9626,-14.4667 140.8653,178.14124 23.885,248.63302 -82.6002,52.91703 -136.2909,-10.81475 -434.3186,65.51713 -17.3501,4.443 -47.751,15.2399 -81.5192,28.1327 M 89.179182,784.48257 C 135.74819,681.19726 228.43956,690.35149 281.59914,716.52796 c 81.48893,40.12877 127.36115,134.75755 82.73118,205.09531 -1.17081,1.84455 -1.85188,3.99484 -2.75996,6.0027 0,0 -0.0367,-0.0708 -0.33321,-0.0245 -1.31178,1.55693 -2.32789,3.06759 -3.34399,4.57915 C 248.29158,1058.4625 56.078261,882.31401 84.519402,800.73997"
     id="path2"
     sodipodi:nodetypes="cccccccccscccccccccc"
     style="stroke-width:0.911347" /></svg>
